<?xml version="1.0" standalone="no"?>
<!DOCTYPE svg PUBLIC "-//W3C//DTD SVG 20010904//EN"
 "http://www.w3.org/TR/2001/REC-SVG-20010904/DTD/svg10.dtd">
<svg version="1.0" xmlns="http://www.w3.org/2000/svg"
 width="360.000000pt" height="360.000000pt" viewBox="0 0 360.000000 360.000000"
 preserveAspectRatio="xMidYMid meet">
<metadata>
Created by potrace 1.11, written by Peter Selinger 2001-2013
</metadata>
<g transform="translate(0.000000,360.000000) scale(0.100000,-0.100000)"
fill="#000000" stroke="none">
<path d="M300 2700 l0 -600 600 0 600 0 0 600 0 600 -600 0 -600 0 0 -600z"/>
<path d="M2100 2700 l0 -600 600 0 600 0 0 600 0 600 -600 0 -600 0 0 -600z"/>
<path d="M300 900 l0 -600 600 0 600 0 0 600 0 600 -600 0 -600 0 0 -600z"/>
<path d="M2100 900 l0 -600 600 0 600 0 0 600 0 600 -600 0 -600 0 0 -600z"/>
</g>
</svg>
