<?xml version="1.0" encoding="utf-8"?>
<!-- Generator: Adobe Illustrator 25.2.0, SVG Export Plug-In . SVG Version: 6.00 Build 0)  -->
<svg version="1.1" id="Layer_1" xmlns="http://www.w3.org/2000/svg" xmlns:xlink="http://www.w3.org/1999/xlink" x="0px" y="0px"
	 viewBox="0 0 890.7 724.3" style="enable-background:new 0 0 890.7 724.3;" xml:space="preserve">
<style type="text/css">
	.st0{fill:#FFFFFF;}
	.st1{fill:#7073C9;}
</style>
<g>
	<path class="st0" d="M521,717.5c-182.1,0-364.1,0-546,0c0-242.4,0-484.9,0-727.4c182,0,364,0,546,0C521,232.5,521,475,521,717.5z"
		/>
</g>
<g>
	<g>
		<path class="st1" d="M740.1,471.1c0.4,0.7,0.7,1.3,1.3,2.5c-2.7-0.2-5.1,0.2-7-0.7c-1.7-0.8-2.8-3-4.2-4.6
			c-0.2,0.1-0.4,0.3-0.6,0.4c0.8,1.5,1.7,3,2.6,4.6c-2.6,0.6-5,1.1-7.4,1.6c0,0.3,0.1,0.6,0.1,0.9c1.1,0,2.2,0,3.4,0
			c4.7,0.1,9.4,0.1,14.1,0.2c2.4,0,4.9,0.3,7.3,0.1c1.3-0.1,2.6-1,4-1.6c5.5,2.2,4.1,7.3,4.2,12c-2.8,0.6-3.4,0.1-4.1-3
			c0.4-0.1,0.8-0.2,1.2-0.2c0.4-0.1,0.9-0.2,1.7-0.3c-1-1.5-1.9-2.8-3-4.4c-2.1,2.5-4.4,4.7-7.5,1.5c-0.7,0.8-1.2,1.4-1.7,2
			c-2.4-3.3-2.4-3.3-6.3-1.2c-1.6,0.9-2.9,1-4.4-0.4c-2-1.8-4.6-1.9-7.1-1.5c-0.8,0.1-1.6,0-2.7,0c-1.1,2.5-3.2,3.1-5.9,2.5
			c-0.9-0.2-2-0.1-2.9,0.2c-4.5,1.4-4.8,1.2-5.6-4.2c-0.9,1.7-1.5,2.8-2.3,4.2c-0.7-1.2-1.4-2.4-2.3-4.1c0,3.9-0.9,4.5-3.8,3.9
			c-5-1-10.2-1.4-15-2.9c-8.4-2.6-16.6-5.8-25-8.6c-3.4-1.1-6.9-1.8-10.4-2.7c-7.6-2-15.2-4.1-22.8-6c-6.8-1.7-13.6-3.3-20.3-5.1
			c-3.5-0.9-6.9-2.3-10.4-3.3c-2.1-0.6-4.4-0.8-6.5-1.5c-1.1-0.3-2.1-1.2-3.2-1.8c0.1-0.3,0.3-0.5,0.4-0.8
			c6.4-1.1,12.9-2.2,19.3-3.3c0.3,0,0.6,0,0.8-0.1c0.8-0.6,1.5-1.2,2.3-1.8c-1-0.4-1.9-0.8-2.9-1c-0.5-0.1-1.2,0.1-1.8,0.2
			c-3.3-29.1,17.5-62.9,51.4-71.9c-2,1.5-4,3-6,4.4c-3.9,2.9-7.8,5.7-11.7,8.6c-0.4,0.3-0.5,1.3-0.7,1.9c0.6-0.1,1.4,0,1.8-0.4
			c8.4-8.1,18.9-11.9,29.8-15.4c10.9-3.5,21.9-3.4,33.1-2.6c4.6,0.3,8.2,3.2,12.7,3.3c1.6,0,3.3,0,5.1,0c1.4,2.5,5.2,4.3,8.4,3.5
			c-1.3-0.8-2.5-1.5-3.7-2.2c0.1-0.3,0.1-0.5,0.2-0.8c0.7,0,1.5-0.2,2.1,0c11.3,3.7,21.2,10,29.9,18.1c1.7,1.6,3.1,3.6,4.7,5.4
			c-1,0.6-2.5,1-2.6,1.7c-0.1,0.9,0.5,2.2,1.3,3c4.8,4.6,6.9,10.8,9.4,16.7c2.1,4.8,3.4,10,4.9,15c0.5,1.4,0.9,2.7,3.1,2.3
			c-0.6-2.7-1.3-5.3-1.8-7.8c-0.3-1.6-0.4-3.3-0.6-4.9c0.3,0,0.5,0,0.8,0c6.5,19.9,4.2,38.8-6.5,57.1c-0.4-1.2-0.5-2.2-1-2.9
			c-0.4-0.5-1.3-0.5-2-0.7c0.1,0.6,0,1.5,0.4,1.8c1.9,1.3,1.7,2.9,1.1,4.7c-0.4,1.2-0.7,2.7-2.7,2.2c-1.8-0.5-2.7-1.3-1.6-3.2
			c-3-0.9-2.4,2.1-4,3.2c-0.7-1.4-1.2-2.6-1.9-4.2c1.4-0.3,2.6-0.4,3.6-0.8c0.7-0.3,1.6-0.9,1.7-1.6c0.1-0.7-0.5-1.6-0.8-2.4
			c-0.7,0.4-1.3,0.9-2,1.1c-1,0.2-2.1,0.5-3,0.2c-2.5-0.8-3.9-3.8-2.9-6.3c0.9-2.3,2-4.4,2.8-6.7c1.4-3.8,1.1-4.4-3.4-5.5
			c-1.1,4.5-2.2,9-3.4,13.9c-1.2-0.8-1.7-1.2-2.8-1.9c-0.3,1.6-0.5,2.8-0.7,4.3c-2.8,0.6-5.2-1-7.6-2.8c-0.4-0.3-0.9-0.6-1.3-0.9
			c-0.3,0.3-0.5,0.6-0.8,0.9C739,470.6,739.6,470.8,740.1,471.1z M737.4,468.9c0.2,0.2,0.4,0.3,0.6,0.5c0.3,0.1,0.5,0.2,0.8,0.2
			c-0.1-0.3-0.2-0.5-0.4-0.8c-0.2-0.1-0.4-0.3-0.6-0.4c-0.2,0-0.5-0.1-0.7-0.1C737.3,468.5,737.3,468.7,737.4,468.9z M750,460.6
			c0.6-0.8,1.6-1.5,1.8-2.4c0.8-3.8,1.4-7.6,2.1-11.4c0.4-2-0.2-4.3,1.8-6c0.4-0.3,0.2-1.7,0.1-2.5c-0.3-1.7-1-3.4-1.1-5.1
			c-0.2-2.8-1.2-5.1-3.4-6.7c-0.8-0.5-1.9-0.7-2.9-0.7c-0.3,0-1.1,1.3-0.9,1.7c0.5,0.8,1.2,1.8,2.1,2c1.6,0.5,1.9,1.4,1.3,2.8
			c-0.3,0.7-0.1,1.5-0.5,2.1c-1.4,2.4-1.2,4.4-0.1,7.3c1.4,3.8,2.3,8.3,0.8,12.6c-0.7,1.9-0.8,4-1.1,6.1c0,0.2-0.1,0.3-0.1,0.5
			C749.9,460.8,749.9,460.7,750,460.6z M641.6,429.3c-0.1,1.2-0.1,2.5-0.3,3.7c-0.9,3.9-2,7.8-2.9,11.7c-0.4,1.8,0.4,2.7,2.3,2.5
			c1.7-0.2,3.4-0.4,5.1-0.6c1.6-0.1,1.9-0.9,1.9-2.5c0-2,0.3-4.1,1-5.9c1-2.5,2.5-4.9,3.8-7.3c0.5-1,0.9-2,1.3-3c0.3,0,0.5,0,0.8,0
			c0.2,0.8,0.6,1.7,0.5,2.5c-0.4,2.1-1.1,4.1-1.7,6.2c-0.8,2.9-1.6,5.8-2.1,8.8c-0.4,2.3,0.9,3.3,3,3.4c2,0.1,4,0,6.1,0
			c-0.1-0.4-0.1-1.1-0.4-1.4c-2.1-1.5-1.8-3.7-1.7-5.9c0.1-1.6,0.6-3.2,0.8-4.8c0.3-3.2,1.1-6.5,0.7-9.6c-0.4-2.9-2.2-5.5-3.5-8.7
			c-0.9,1.5-2.2,3-2.7,4.8c-1.1,3.7-4.2,5.8-7.9,5.2c-1.5-0.3-3.1-0.8-4,1c-0.1-0.9-0.1-1.8-0.2-2.7c-0.4-3,0.8-5,3.7-5.9
			c0.7-0.2,1.8,0.3,2.5,0.7c0.6,0.4,0.9,1.2,1.3,1.9c1.3-0.7,2.4-1.4,4-2.2c-0.9-0.7-1.5-1.1-2.1-1.5c-1.7-1.2-3.4-2.3-1.5-4.7
			c0.2-0.3,0.2-1.1-0.1-1.4c-0.3-0.3-1.1-0.5-1.4-0.2c-0.7,0.5-1.2,1.2-1.8,1.9c-1.2,1.4-2.5,2.9-3.9,4.6c-0.6-1-0.9-1.4-1.2-1.8
			c-0.6-0.8-1.3-1.5-2-2.2c-0.6,0.6-1.3,1.3-1.9,1.9c-0.4,0.4-0.9,0.8-1.8,1.5c0.2-1.5,0.2-2.2,0.4-3.9c-1.4,0.8-2.8,1-3.2,1.7
			c-2.3,3.9-2.6,9-7.2,11.6c-0.2,0.1-0.4,0.4-0.5,0.6c-1.5,4-3,8-4.3,12c-0.5,1.6-0.6,3.4-0.9,5.1c1.9-0.2,3.8-0.4,5.7-0.7
			c0.2,0,0.4-0.3,0.1-0.1c0.6-5.9-0.1-11.8,7.9-13.1c-0.1-0.2-0.2-0.5-0.3-0.7c-1.5-0.1-2.9-0.3-4.1-0.4c1.2-2.7,2.4-5.3,3.7-7.8
			c0.3-0.7,1-1.3,1.7-1.7c1.6-0.9,3-0.7,2.9,1.4c0,2.4-0.2,4.8-0.9,7.1c-1.3,4.4-3,8.6-4.3,12.9c-0.2,0.7,0.5,2.4,0.7,2.3
			c1.2-0.1,2.6-0.2,3.5-0.9c0.7-0.5,0.8-1.7,1.1-2.7C638.8,437.7,640.2,433.5,641.6,429.3z M676.6,428.7c0.3,0.2,0.7,0.3,1,0.5
			c-1.4,2.2-2.8,4.5-4.2,6.6c-0.6-0.5-1-1.2-1.7-1.5c-1.2-0.4-3.5-1.1-3.7-0.8c-1.5,2.7-2.8,1.9-4.4-0.3c-0.3,3.4-0.3,6.6-0.3,9.8
			c0,0.5,0.4,1.3,0.9,1.6c1.5,0.9,1.6,2.1,1.2,3.7c-0.2,1-0.1,2.7,0.4,3.1c1.1,0.7,2.7,0.6,4.2,0.9c-0.5-1.8-1.2-2.9-1.1-4.1
			c0.1-0.8,1.1-1.6,1.6-2.4c0.4,0.8,0.8,1.7,1.1,2.5c0.1,0.4-0.2,1,0,1.3c0.5,0.9,1.1,1.8,1.7,2.7c0.6-0.7,1.6-1.3,1.9-2.2
			c0.7-2.8,1.1-5.6,1.8-8.4c0.1-0.6,0.6-1.4,1.1-1.5c2.2-0.4,4.3,1.9,3.7,4.2c-0.3,1.3-0.7,2.7-1.1,4.1c5,0.1,5.1,0.1,6.3-4.2
			c0.6-2.1,1.3-4.2,1.9-6.3c0.3,0.1,0.5,0.1,0.8,0.2c-0.6,2.8-1.2,5.5-1.7,8.3c-0.6,2.9,0.4,4.1,3.3,4.2c1.9,0.1,3.8,0,5.8,0
			c-0.4-2.6-1.3-5.1,1.9-7.5c0.2,3.1,0.4,5.6,0.5,8.2c0,1.6-0.3,3.2-0.2,4.8c0.1,0.6,1,1.3,1.7,1.5c0.3,0.1,1.2-0.7,1.5-1.3
			c1.2-3,2.2-6,3.6-8.9c0.9-1.9,1.2-3.3-0.6-4.7c-0.5-0.4-0.8-1.5-0.6-2c1.3-3.5,2.9-6.9,4.2-10.4c0.3-0.8,0.2-1.7,0.3-2.6
			c-2.6,3.7-4.6-0.9-6.9-0.1c-0.5,2.1-0.4,4.7-3,5.8c-0.2,0.1-0.2,0.5-0.2,0.7c-0.3,2.1-1.6,1.8-3,1.2c-1.3-0.6-2.5-1.7-3.9-2.1
			c-2.8-0.8-3.4-2.9-2.7-5c0.5-1.4,2.3-2.7,3.8-3.3c1.8-0.7,2.3,1.2,2.8,2.5c0.4,1.1,0.5,2.4,0.8,4.2c0.7-1.4,1.1-2.2,1.5-3.1
			c0.8,0.3,1.5,0.5,2.1,0.7c0.8-1.9,0.3-3-1.6-3.9c-2.4-1.1-2.7-3.8-1.1-5.8c0.4-0.5,0.6-1.5,0.4-1.8c-0.4-0.4-1.3-0.6-1.9-0.5
			c-0.6,0.2-1.1,0.8-1.5,1.4c-1.1,1.3-2.1,2.7-3.2,3.9c-1.1,1.2-1.9,0.6-2.3-0.7c-0.1-0.5,0.1-1.1,0-1.6c-0.3-0.7-0.6-1.8-1.2-2
			c-0.6-0.2-1.6,0.4-2.2,0.8c-0.5,0.3-0.8,1-1.4,1.7c-0.3-1.5-0.4-2.5-0.6-3.6c-2.3,3.8-2.3,3.8-7.7,2.4c-0.8-2.5,0.8-3.3,2.6-4.2
			c0.6-0.3,1.5-1.3,1.3-1.7c-0.4-0.9-1.2-1.8-2-2.3c-0.3-0.2-1.5,0.3-1.9,0.9c-0.6,0.9-0.8,2.1-1.3,3c-0.6,0.9-1.3,2-2.3,2.3
			c-2.2,0.7-3.9-0.2-5.1-2.3c-0.8-1.5-2.1-2.9-3.5-3.9c-1.1-0.8-2.7-1.6-3.8,0.1c-0.4,0.7-0.7,2.3-0.4,2.4c0.9,0.5,2,0.5,3.4,0.7
			c-0.4,1.1-0.6,2.4-1.3,3.5c-0.7,1.1-1.7,2-2.2,2.5c0.8,1.7,1.3,3,2,4.2c0.4,0.7,0.8,1.9,1.4,2c0.7,0.2,1.8-0.4,2.3-1
			c0.7-0.9,1.1-2,1.5-3.1c0.9-2.6,3.8-4.2,6.5-3.4c3,0.9,0.8,3,0.9,4.5c0,2-0.2,4-0.3,6c0.3,0,0.6,0.1,0.8,0.1
			C675.5,429.8,676,429.3,676.6,428.7z M726.7,422.1c-2.6,1.6-5,3.2-7.6,4.6c-1.3,0.7-1.4,1.3-1.2,2.9c0.4,2.3-0.2,4.9-0.7,7.3
			c-0.1,0.6-1.7,0.8-2.6,1.3c-0.4,0.3-0.7,0.9-1,1.4c-0.3,0.7-0.5,1.5-0.8,2.3c-1.6,4.3-3.3,8.7-4.7,13.1c-0.7,2.3,0.4,3.4,2.8,3.3
			c2.2-0.1,3.3-1.1,3.7-3.4c0.8-4.6,1.3-9.3,3.1-13.5c1.2-2.8,2.8-5.3,3.7-8.3c0.2-0.8,1.9-1.6,2.7-1.5c0.9,0.1,2.1,1.2,2.3,2.1
			c0.9,3.6,1.8,7.2-1.4,10.3c-0.3,0.3-0.5,1-0.6,1.5c-0.8,2.8-1.6,5.7-2.4,8.5c-0.4,1.4-0.9,2.8-0.8,4.2c0.1,0.9,1.1,2,2,2.4
			c0.4,0.2,1.9-0.8,2.2-1.6c1.2-3.3,2.2-6.6,3.3-9.9c0.3-0.8,0.8-1.5,1.2-2.3c0.2,0.1,0.4,0.2,0.6,0.2c-0.1,1.1-0.1,2.3-0.4,3.4
			c-0.9,3.5-1.8,6.9-2.9,10.3c-0.4,1.3-0.4,2.4,1.1,2.7c2.4,0.4,4.8,0.6,6.9,0.9c0.3-2.6,0.1-5,1-6.8c2.1-4.3,4.8-8.3,7.4-12.6
			c0.1,0.3,0.6,0.9,0.6,1.4c-0.2,2.1-0.4,4.3-1,6.3c-1.2,4-2.7,7.9-3.9,12c-0.2,0.8,0.1,2.6,0.7,2.8c2,0.8,4.2,1.1,5.7,1.5
			c0.4-3.5,0.8-6.2,1.1-9c0.6-4.9,2.2-10,1.6-14.8c-0.6-4.2-3.2-8.2-2.2-13c-2.3,3.5-4.6,7-6,10.7c-0.8,2.3-1.6,1.9-3,1.2
			c-2.1-1.1-4.1-2.3-6-3.4c-0.4-1.7-0.7-3.4-1.1-5.3c0.2-0.2,0.8-0.5,1.2-0.9c0.5-0.4,0.9-0.9,1.4-1.2c2.3-1.6,3.5-1.2,4.3,1.5
			c0.4,1.4,0.6,2.8,1,4.6c1.1-1.3,1.8-2.4,2.7-3.1c1.7-1.3,1.3-2.2-0.3-3.2c-2.1-1.4-3.7-3.1-3.2-6c0.1-0.5-0.3-1.5-0.7-1.7
			c-0.5-0.2-1.3,0.2-1.8,0.6c-0.5,0.4-0.8,1.1-1.2,1.7c-3-2.5-6.7-1.8-9.1,1.9C720.9,425.6,727.5,425.3,726.7,422.1z M767.5,467.7
			c0-2.7-0.1-5.4,0-8.1c0.3-3.9-1.4-7.8,0.1-11.8c0.3-0.7-0.8-2.2-1.7-2.9c-1.8-1.4-2.6-2.9-2.2-5.3c0.2-1.2-0.5-2.7-0.8-4
			c0.3,0.6,0.5,1.1,0.8,1.7c-1.3,0.7-2.6,1.3-3.4,1.8c0.4,0.7,1.9,2.3,1.6,3.1c-1.6,3.9-1.1,7.8-1,11.7c0,0.2,0.2,0.5,0.2,0.7
			c0.8-0.1,1.5-0.1,2.6-0.2c-0.3,1-0.4,1.6-0.7,2.2c-1,2.1-2.1,4.1-2.9,6.2c-1,2.6-1.7,5.2-2.4,7.8c-0.2,0.6,0.2,1.5,0.7,2
			c0.2,0.2,1.3-0.1,1.8-0.4c0.5-0.3,0.8-0.9,1.1-1.5c0.7-1.3,1-3,2-3.7C764,466.5,765.7,467.4,767.5,467.7z M613.9,425.8
			c-0.8,3.7-0.7,6.8,0.8,9.8c0.3,0.6,0,2.3-0.5,2.5c-3.8,1.6-3.6,4.8-3.1,7.9c0.1,0.7,1,1.4,1.5,2.1c0.6-0.6,1.3-1,1.7-1.7
			c1.3-2.8,2.5-5.7,3.7-8.6c0.3-0.7,0.4-1.9,0.1-2.2c-2.3-2-1.6-4-0.5-6.3c0.7-1.4,1-2.9,1.6-4.3c0.8-2.2,1.4-4.6,4.4-4.7
			c0.4,0,0.7-0.5,1-0.8c1.5-1.4,3.1-2.7,4.5-4.1c0.4-0.4,0.9-1.3,0.8-1.7c-0.2-0.5-1-1.1-1.5-1.2c-2.1-0.3-3.5,0.6-3.9,2.7
			c-0.1,0.7-0.1,1.4-0.2,2c-0.2-0.2-0.3-0.4-0.5-0.6c-1.7,0.9-3.4,1.8-5.7,3c-0.5-1.6-1.1-3.3-1.6-5c-1.7,1.2-2.3,5.5-0.9,6.9
			c2.4,2.4,2.4,3.4,0,5.9C615,427.1,614.6,426.6,613.9,425.8z M712.5,420.7c-0.4,1.2-0.6,2.2-0.9,3c-0.6,1.5-1,3.2,1,3.8
			c2,0.6,2.9-0.8,3.5-2.5c1-3-0.2-5.1-4.3-7.3c-0.7-0.4-2.3-0.2-2.6,0.3c-0.5,0.7-0.4,2-0.5,3.1c0.9,0,1.7-0.1,2.6-0.1
			C711.4,421,711.8,420.9,712.5,420.7z M692.7,379.6c0,0.3,0,0.5,0.1,0.8c1,0.3,1.9,0.6,2.9,0.8c2.7,0.3,5.5,0.5,8.3,0.8
			c1.8,0.2,3.5,0.6,5.3,0.7c0.6,0,1.3-0.5,2-0.7c-0.5-0.5-1-1.1-1.5-1.6c-0.2-0.2-0.7-0.3-1-0.3c-4.5-0.5-9.1-1-13.6-1.3
			C694.3,378.7,693.5,379.3,692.7,379.6z M685.4,380.2c-4.1-1.1-18.8,3.3-21,6.3c0.4,0.2,0.9,0.5,1.2,0.5c6.3-1.7,12.5-3.4,18.8-5.2
			c0.3-0.1,0.7-0.3,0.8-0.6C685.4,380.9,685.4,380.5,685.4,380.2z M748.8,387.9c0,0.3,0,0.5,0,0.8c4,5.9,8,11.7,12.1,17.6
			c1.9-1.6,0.9-2.9,0.1-4c-3.2-4.5-6.4-9-9.8-13.4C750.7,388.3,749.6,388.2,748.8,387.9z M609.4,418.1c0.6,0.9,1,1.7,1.5,2.4
			c0.6-0.6,1.3-1.2,1.6-2c1.1-2.7,2-5.5,3-8.3c0.4-1.2,1.2-2.2,1.4-3.4c0.1-0.7-0.4-1.5-0.7-2.3c-0.6,0.4-1.3,0.8-1.6,1.4
			c-0.9,1.7-1.5,3.4-2.3,5.1C611.5,413.4,610.5,415.6,609.4,418.1z M642,454.4c1.8-0.4,3.4-0.8,5.3-1.2c-5-4.3-8.7-4.5-10.8-0.6
			c1.7-0.6,3.2-1.2,4.9-1.8C641.7,452.2,641.8,453.1,642,454.4z M749.5,407.8c0-3.2-5.2-9.3-8.7-10.5
			C743,401.6,746.4,404.1,749.5,407.8z M762,407c-0.3,0.2-0.6,0.4-0.8,0.5c0.8,2.7,1.5,5.4,2.4,8.1c0.1,0.4,0.8,0.6,1.2,0.9
			c0.3-0.5,0.9-1.1,0.8-1.5c-0.5-2.2-1.1-4.3-1.8-6.4C763.4,408,762.6,407.6,762,407z M665.9,461.7c2.6-2.1,5.2-4.1,8.1-6.5
			C670,454.3,667.2,456.5,665.9,461.7z M707,468.1c-0.3,0.3-0.6,0.6-1,0.9c-0.2,1.3-0.5,2.7-0.7,4.1c0.9,0.7,1.9,1.3,3.1,2.2
			c0.7-1.2,1.4-2.2,2-3.1c-0.4,0.3-0.9,0.5-1.3,0.8C708.4,471.4,707.7,469.8,707,468.1z M714,462.4c-0.8-0.3-1.3-0.7-1.6-0.6
			c-2.2,0.9-3.3,0.2-4-2c-0.2-0.6-1.6-0.8-2.4-1.1c0.4,1.1,1.5,1.8,1.5,2.4c-0.1,2.9,2,3.1,3.8,3.9
			C712.1,464.1,712.9,463.4,714,462.4z M632.6,395.4c2-2.8,3.7-5.2,5.7-8.1C634.3,388.8,631.7,392.2,632.6,395.4z M674.2,458.2
			c2.5-0.4,5.7,0.9,7-2.7C677.7,453.8,676.2,456.6,674.2,458.2z M719.3,383.1c1,3.1,3.9,4.6,7.5,3.9
			C724.5,385.7,722.2,384.5,719.3,383.1z M739.9,382.2c-0.1-3-2.3-4.6-5.9-4.4C736,379.3,738,380.8,739.9,382.2z M717.5,461.6
			c-0.3-0.1-0.6-0.3-0.8-0.4c-0.8,2-1.5,3.9-2.4,6.2C716.4,467.1,716.4,467.1,717.5,461.6z M746.6,387.3c0.3-0.4,0.7-0.8,1-1.2
			c-1.5-1.3-3-2.7-4.5-4c-0.3,0.4-0.7,0.7-1,1.1C743.6,384.5,745.1,385.9,746.6,387.3z M679.7,471c-4.2-1.6-4.2-1.6-4.8-0.6
			c1.6,1,3.1,1.9,4.6,2.8C679.5,473,679.6,472,679.7,471z M716.4,380.8c-0.4,0.3-0.8,0.5-1.2,0.8c-0.6,0.4-1.2,0.7-1.8,1.1
			c0.9,0.6,1.7,1.3,2.7,1.7c0.4,0.2,1.6-0.7,1.5-0.8C717.3,382.7,716.8,381.8,716.4,380.8z M620.7,455c0-0.4,0.1-0.7,0.1-1.1
			c-2.1-0.4-4.2-0.9-6.3-1.3c-0.1,0.4-0.2,0.7-0.2,1.1C616.4,454.1,618.5,454.6,620.7,455z M687,467c0.3,1.8,0.5,3.3,0.7,4.9
			C690.2,470.3,690,468.8,687,467z M728.6,389.2c1.3,0.9,2.5,1.7,3.6,2.5c0.2-0.3,0.5-0.8,0.5-0.8c-1.1-0.8-2.1-1.6-3.2-2.3
			C729.4,388.6,729.3,388.7,728.6,389.2z M719.1,442.6c-0.1,0.5-0.2,0.9-0.3,1.4c1.4,0.3,2.7,0.6,4.1,0.8c0.1-0.5,0.2-0.9,0.3-1.4
			C721.8,443.2,720.4,442.9,719.1,442.6z M698.4,460c-0.3,0.3-0.5,0.5-0.8,0.8c1.2,1.3,2.3,2.6,3.5,3.9c0.3-0.3,0.6-0.6,0.9-0.9
			C700.8,462.5,699.6,461.3,698.4,460z"/>
		<path class="st1" d="M760.2,533.4c-0.5-0.4-1-0.9-1.6-1.4c5.5-2.3,12-1.5,15.9-7.2c-4.6,1.5-6.8-2.7-10.1-4
			c-1.3-0.5-1.9-2.8-2.9-4.3c2.2-1.1,4.6-0.9,6.4,1.2c1.4,1.6,2.6,2.7,5,2c0.9-0.3,2.1,0.3,3.1,0.7c1.8,0.6,3.6,1.3,5.2,2
			c-0.7,1.6-1.5,3.4-2.4,5.3c-1.7,3.7-3.9,6.8-8.1,8.1c-0.3,0.1-0.7,0.3-0.9,0.5c-5.2,3.9-10.5,7.7-15.6,11.7
			c-2.1,1.6-5.4,3.1-8.3,3.2c-0.6,0-1.1,0.6-1.6,0.9c-4.4,1.9-8.8,3.9-13.2,5.8c-0.3,0.1-0.6,0.1-1.8,0.3c2.9-1.7,4-3.6,3.3-6.1
			c-2.7-0.7-2.7-0.7-2.5,3.4c-0.5-0.4-1.1-0.5-1.3-0.9c-1-1.7-2.2-1.3-3.6-0.6c-1.5,0.7-3.2,1.1-4.7,1.6c0,0,0,0,0,0
			c-0.4-1.3-0.9-2.5-1.5-4.3c1.5-1.1,3.6-2.4,5.4-3.9c1-0.8,1.5-2.1,2.3-3.2c0.1-0.1,0.1-0.4,0.2-0.5c2.9-2.3,3.5-6.8,7.7-7.8
			c0.3-0.1,0.9-0.2,1-0.4c0.7-2.8,2.7-3.9,5.4-4.3c1.2-0.2,2.4-0.9,3.6-1.4c1.2-0.5,2.3-1,3.3-1.8c-5.1,0-10.3-0.8-13.7,4.4
			c-1,1.4-2.7,2.4-4,3.6c-0.2-0.3-0.5-0.6-0.7-0.8c1.6-1.5,3.2-3,4.9-4.5c0.8-0.7,1.7-1.4,2.3-2.2c0.2-0.3-0.4-1.7-0.8-1.8
			c-7.7-1.4-15.3-2.7-23-4c-5.8-0.9-5.8-0.8-11.8-4.6c-1.8,1.8-5.5,1-9.9-2c0.1-0.2,0.1-0.5,0.2-0.7c0.8,0.3,1.6,0.6,2.4,0.8
			c0.9,0.2,1.8,0.2,2.7,0.2c3.5-0.1,7.2-0.9,10.6-0.1c5.5,1.2,10.7,3.5,16.2,5.2c1.6,0.5,3.7,2,4.9-0.7l0,0c0.8-0.7,1.6-1.3,1.9-1.6
			c1.7-0.3,2.8-0.5,3.9-0.7c0.9-0.1,1.8-0.1,2.7,0c0.2,0,0.5,1.3,0.3,1.4c-0.7,0.5-1.6,0.8-2.7,1.3c-0.3,1-0.8,2.2,1.7,1.9
			c1.2-0.1,2.5,0.5,3.8,0.8c2.3,0.5,4.6,0.8,6.9,1.4c1,0.3,2.5,0.7,2.9,1.5c1.4,2.6,2.4,5.4,3.8,8.7c2.3-0.4,4.7-0.8,7.1-1.2
			c0.7,0.7,1.4,1.4,2,2c0.5-0.7,0.9-1.5,1.6-2.5C762.2,533.4,761.2,533.4,760.2,533.4z M744.9,536.8c0.2,1,0.4,1.4,0.4,1.8
			c0,1.8,0.2,3.9,2.2,4c1.4,0.1,2.8-1.4,4.2-2.2c1-0.5,2-1,3.2-1.7c-0.2-0.8-0.5-1.9-0.8-2.9c-2.2-0.4-4.1-1-6.1-1
			c-2.1,0-5.3-0.1-6,1.1c-1.5,2.5-3.5,3.6-5.9,4.7c-0.1,0,0,0.3,0,0.7C739.8,541.6,741.8,538.4,744.9,536.8z M735,548.6
			c1.2-0.4,2.4-0.5,3.4-1.1c1.3-0.8,2.4-1.9,3.4-3c0.6-0.7,0.7-1.8,1-2.7c-0.9,0.3-1.8,0.6-2.6,1c-1.7,1.1-3.2,2.6-5,3.4
			c-2,0.8-4.3,0.7-6.4,1.2c-0.6,0.1-1,0.8-1.5,1.3c0.1,0.3,0.1,0.5,0.2,0.8c0.9,0,2,0.3,2.6-0.1c1.9-1.1,3-0.5,3.7,1.3
			c0.2,0.6,0.5,1.2,0.9,1.6c0.6,0.6,1.4,1.6,2.1,1.5c0.9,0,1.7-0.9,2.8-1.6C737.8,550.8,735,551.6,735,548.6z M748.6,544.8
			c-2.3,1-4.2,1.9-6.1,2.8c-1.1,0.5-2.4,1.1-1,2.5c2.5-1.1,5-2.2,7.6-3.4C749,546,748.8,545.3,748.6,544.8z M725.9,551.5
			c-0.2-0.6-0.4-1.1-0.7-1.7c-1.2,0.4-2.5,0.9-3.7,1.3c0.2,0.6,0.5,1.3,0.7,1.9C723.5,552.5,724.7,552,725.9,551.5z"/>
		<path class="st1" d="M643.4,484.3c2.5,0,2.5-2,3.3-3.6c-1-0.3-1.7-0.4-2.3-0.7c-1.3-0.6-2-1.5-1-2.9c0.8-1.2,1.7-2.4,3.2-1
			c1.3,1.3,2.7,2.6,3.6,4.1c0.9,1.6,1.8,2.3,3.5,1.8c0.1-1.4,0.5-2.8,0.2-4.1c-0.3-1.2-1.2-2.4-1.9-3.5c-0.8-1.2-1.7-2.4-2.6-3.5
			c0.2-0.2,0.4-0.5,0.7-0.7c2.3,0.8,4.7,1.5,6.9,2.3c4.4,1.7,8.7,3.5,13,5.1c0.6,0.2,1.4,0.2,2.1,0.3c2.7,0.2,5,1.1,6.9,3.1
			c0.6,0.7,2.2,1.2,3,0.9c2.5-1,4-0.3,5.1,1.9c0.2,0.4,0.5,0.7,1,1.2c3-4.1,6.6-0.9,10-0.9c0.5,0,1.1,1.9,1.6,2.9
			c0.6-0.1,1.7-0.8,2.1-0.5c4.7,3.5,10.2,2,15.3,3c0.2,0,0.3,0.1,0.5,0.2c-0.9,1.7-5,2.8-7.3,2.1c-2.5-0.7-5-1.3-8-2.1
			c1.6,1.7,4,3.1,0.7,5.1c-0.5-0.4-1.1-0.9-1.8-1.5c-2.7,2.1-5.6,2.9-9.1,2.1c-1.2-0.3-2.6,0.5-4.3,0.9c-1.6-1.7-1.3-3.6,1.9-7.9
			c-1.2-0.7-2.3-1.3-3-1.7c-1.7,1.4-3.2,2.6-5.1,4.1c1.4,0.2,2.6,0.3,3.9,0.5c0.1,2-2.9,3.9-5.6,3.6c-2.7-0.2-4.6-1.1-5.3-4
			c-0.1-0.6-0.9-1.1-1.4-1.4c-0.2-0.1-1.1,0.6-1.1,0.9c0,0.7,0.3,1.4,0.6,2.2c0,0.1,0.3,0.2,0.4,0.3c3.4,2.5,3.4,3.3,0.2,5.5
			c-1.7-1.6-3.4-3-4.9-4.7c-0.4-0.4,0-1.5,0-2.2c-0.1-1-0.2-2.1-0.8-3.2c0.4,4.3-2.5,3.3-5,3.6c1.5,1.1,3,2.2,4.6,3.3
			c-3,2.6-2.8,2.4-4.6-0.7c-0.7-1.3-2.9-1.7-4.4-2.5c-0.9-0.6-1.8-1.3-2.7-1.9c-0.8-0.6-1.5-1.1-2.3-1.7c-0.2,0.2-0.4,0.4-0.6,0.6
			c0.9,1.7,1.7,3.4,2.6,5.1c-3.5-0.2-4.8-1.7-5.4-4.7c-0.3-1.3-1.7-2.6-3-3.3c-0.6-0.3-1.9,0.7-3.5,1.4c-0.8-0.6-2.1-1.7-3.6-3
			C641.2,484.6,642.3,484.5,643.4,484.3C643.5,484.3,643.4,484.3,643.4,484.3z M648.7,485.2c3.7,1.4,7.3,2.8,10.8,4.2
			c2,0.8,4.1,1.3,6-0.6c-2.2-2.1-4.5-3.6-7.7-3.4c-1.3,0.1-2.6-0.4-3.8-0.9C652,483.6,650.3,484,648.7,485.2z M661.6,476.4
			c-0.4,2.2-0.7,4-0.9,5.4c2,1.8,3.8,3.4,5.4,4.8c1.1-1.9,1.9-3.3,2.9-5.1c-1.6,0.4-3,0.7-4.9,1.2
			C665.8,479.4,663.5,478.2,661.6,476.4z M655.6,473.9c0.6,1.4,1.2,2.6,1.8,4C659.3,474.9,658.9,474.1,655.6,473.9z"/>
		<path class="st1" d="M827.7,505.8c-1.5-0.7-3.2-1.1-4.6-2.1c-2.1-1.6-4.4-2-6.8-1.3c-0.6-3-2.1-3.6-5.1-2.3
			c-0.8,0.3-2.5,0.1-2.9-0.4c-1.8-3.2-4.5-2.6-7.3-1.6c1.5,0.2,2.9,0.3,4.6,0.5c-0.2,0.9-0.3,1.8-0.6,2.6c-0.7,1.7-1.1,3.6,0.9,4.4
			c1.1,0.5,2.6-0.1,4.1-0.3c0,0.4,0,1.4,0,1.7c-2.4,1.8-4.4,3.2-6.3,4.8c-0.3,0.2-0.1,1.5,0.1,1.6c0.8,0.3,1.7,0.5,2.5,0.4
			c0.4,0,0.6-0.9,1-1.1c1.4-0.6,3.4-0.7,4.3-1.8c0.7-0.8,0.1-2.7,0.1-4.1c0.4-0.1,0.7-0.1,1.1-0.2c0.4,1.4,1.4,2.9,1.1,4.1
			c-0.2,1.1-1.9,1.8-3,2.6c-0.4,0.3-1,0.4-1.5,0.4c-1.7,0.2-2.6,1-2.1,2.9c0.5,2,1.9,1.8,3.4,1.5c2.3-0.6,4.6-0.7,6.4-2.9
			c1.6-1.9,3.6-1.5,6.8,0.7c-1.5,0.1-2.5,0.1-3.5,0.2c-1.1,0.2-2.3,0.4-3.2,1c-0.5,0.3-1,1.2-0.9,1.7c0.1,0.5,1,1.1,1.6,1.1
			c2,0,3.1,0.7,3.5,2.8c0.3,1.8,3.7,2.2,6.4,0.8c-1.7-1.3-3.3-2.5-4.9-3.7c0-0.3,0-0.6,0-0.9c1.3-0.3,2.7-0.5,4-0.8
			c0.8-0.2,1.6-0.4,2.4-0.9c1.1-0.7,2.1-1.5,3.5-2c-2.6,2.9-3.3,6.4-3.5,10c0,0.4-0.7,1-1.1,1.2c-1.9,0.6-3.8,1-5.7,1.4
			c-1.1,0.2-2.3,0.3-3.5,0.1c-4.2-0.6-8.4-1.3-12.6-2.1c-0.7-0.1-1.4-0.5-2-0.9c-0.1-0.1,0.2-1.2,0.5-1.3c0.6-0.2,1.4-0.2,1.9,0.1
			c2,1.1,3.9,1.4,6.3,0.7c1.7-0.5,3.8,0.2,5.7,0.3c0.1-0.3,0.1-0.5,0.2-0.8c-0.8-0.3-1.6-0.7-2.4-0.8c-5.3-1.1-10.6-2.1-15.9-3.4
			c-1.2-0.3-2.3-1.3-3.2-2.3c-1-1.1-1.6-1.5-3-0.3c-2.6,2.3-6.7,1.2-7.6-1.9c-0.2-0.7,0-1.6,0.3-2.2c0.1-0.2,1.2-0.1,1.8,0
			c1.6,0.4,3.2,1.2,4.9,1.4c1,0.1,2-0.5,3.2-0.9c-0.4-0.9-0.6-1.3-0.7-1.8c-0.1-0.5,0.1-1,0.1-1.4c0.5,0.2,1.1,0.3,1.5,0.6
			c0.3,0.2,0.4,0.8,0.7,1.1c1.2,1.4,2.1,1.6,2.9-0.4c0.3-0.7,0.8-1.3,1.3-1.9c0.5-0.7,1.6-1.7,1.5-1.8c-0.9-1.1-2-2.1-3.1-3.1
			c-0.5,0.6-1.4,1.3-1.4,1.9c0,0.9,0.7,1.8,1.1,2.6c-0.1,0.2-0.3,0.4-0.4,0.6c-0.9-0.5-1.8-1.2-2.7-1.6c-0.8-0.4-1.7-0.8-2.7-0.9
			c-0.2,0-0.5,1.1-1.2,1.7c0.2-1.2,0.5-2.4,0.7-3.6c1.3,0,2.5,0.4,3.2-0.1c1.6-0.9,2.9-2.2,4.3-3.4c0.1-0.1-0.7-1.5-1.1-1.5
			c-1.5,0.1-2.9,0.4-4.6,0.7c-0.1-0.1-0.3-0.4-0.4-0.7c-0.1-3.3-0.9-3.9-4.2-3.4c-1.6,0.2-3.2,0.6-4.8,0.9c0.7,3.9,1.5,7.9,2.1,11.9
			c0,0.1-0.5,0.4-0.8,0.6c-0.7-1.2-1.1-2.4-1.9-3.3c-1.9-2-3.4-4-0.9-6.6c0.2-0.2,0-0.7-0.1-1.4c-2.6,0.3-5.7,2.5-7.5-1
			c-0.6-1.2-0.4-2.8-0.5-3.9c2.5-0.1,4.3-0.3,6.1-0.3c3.5,0.1,7,0.3,10.5,0.6c4.7,0.4,9.5,1,14.2,1.5c5.8,0.6,11,3.1,16,5.7
			C825.9,502.6,826.7,504.5,827.7,505.8L827.7,505.8z M803.7,518.3c0.5-0.4,1.3-0.8,1.6-1.4c0.1-0.3-0.6-1.2-1.1-1.6
			c-0.8-0.6-1.7-1.3-2.6-1.4c-0.9-0.1-1.9,0.5-2.8,0.8c0.4,0.8,0.6,1.9,1.3,2.3C801,517.7,802.3,517.9,803.7,518.3z"/>
		<path class="st1" d="M583.4,466c-0.1-1.9-0.3-3.9-0.5-6.1c-1.1-0.3-2.4-0.6-3.6-0.9c-0.1,0.2-0.2,0.5-0.3,0.7
			c0.6,0.4,1.2,0.8,1.8,1.2c1.4,0.9,2,1.9,1.1,3.6c-0.3,0.6,0,1.6,0,2.5c0,0.7,0,1.3,0,2.3c-2.3-1.8-4.2-3.2-6.1-4.7
			c-0.5,1.6-0.9,2.6-1.2,3.7c-0.3,0-0.5-0.1-0.8-0.1c-0.5-0.9-0.9-1.8-1.7-3.2c-1.1,1.8-1.8,3-2.8,4.6c-0.7-1.2-1.3-2.1-1.9-3
			c-3,3.1-8.9,3.5-13.1,0.9c1.6-0.2,3.1,0,4.4-0.6c1.2-0.5,2.1-1.7,3.2-2.7c-2-1.3-6.6,0.3-8.9,2.5c-1.2-0.6-2.4-1.2-3.5-1.9
			c-0.5-0.4-1.2-1-1.2-1.6c0-0.5,0.6-1.3,1.2-1.6c2.6-1,5.9-0.7,7.6-3.7c0.2-0.3,1-0.4,1.5-0.5c3.7-0.7,7.4-1.2,10.9-2.2
			c5.2-1.6,10.1-1.4,15.1,2c0-3.4,1.6-2.8,3.5-1.9c1.7,0.7,3.4,1.4,5.1,2c1.1,0.4,2.3,0.5,3.4,0.7c4.7,0.8,7.2,3.9,8.6,8.5
			c-4.6-1.1-9.1-2.1-13.6-3.1c-2.9,0.8-2.6,3.6-3.1,5.9c-4.2-0.1-1.8-3-2.2-4.9C585.4,464.9,584.4,465.4,583.4,466
			C583.4,465.9,583.4,466,583.4,466z M574,462.5c-3.3,0.3-6.6,0.6-9.9,0.9c0,0.4,0.1,0.7,0.1,1.1c2.5,0,5,0.1,7.5-0.1
			c0.9-0.1,1.8-1,2.7-1.5c0.1-0.2,0.2-0.3,0.3-0.5C574.4,462.4,574.2,462.4,574,462.5z M589,464.7c0.2-0.3,0.4-0.5,0.6-0.8
			c-0.8-0.5-1.5-1-2.3-1.5c-0.2,0.2-0.3,0.4-0.5,0.7C587.6,463.7,588.3,464.2,589,464.7z"/>
		<path class="st1" d="M612,481.9c-0.1-0.8-0.2-1.8-0.5-2.5c-1-2.4-1.1-4.6,1.2-6.8c-1.5-0.8-2.7-1.4-4-2.1c0,0,0,0.1,0,0.1
			c-0.2-0.9-0.5-1.8-0.8-3.3c1.3,0.3,2.3,0.6,3.4,0.9c-0.4-1.2-0.8-2.4-1.3-3.7c-0.6,0.5-1.2,1-1.8,1.6c-0.9-1.4-1.6-2.5-2.5-3.9
			c1.1-2,3.3-3,6.1-2c5.8,2.1,12,2.9,17.7,6c5.4,2.9,11.6,4.5,17.5,6.6c1.9,0.6,3.2,1.5,3.3,3.8c-2.5-1-4.9-2-7.4-3
			c-0.4,1.3-0.6,2.1-0.9,3.2c-3.1-2.6-6.2-5.1-9.4-7.8c-1.2,2.5-0.1,3.3,1.2,4.1c1.8,1.1,2.6,2.6,1.7,4.1c-2.5-0.2-4.6-0.4-6.6-0.5
			c-0.1,0.2-0.2,0.4-0.3,0.7c2.3,1.6,4.6,3.1,6.8,4.7c-0.1,0.2-0.2,0.4-0.3,0.7c-5.8-1.2-9.4,3-13.8,5.4c-1,0.6-2.1,0.9-3.5,0.8
			c-0.5,1-1,2-2,3.7c-1.2-2.9-2.2-5.1-3.1-7.4C612.3,484.1,612.2,482.9,612,481.9C612,481.9,612,481.9,612,481.9z M618.2,480.9
			c0.7-0.8,1.2-1.3,1.4-1.6c3.1,0.9,5.9,1.7,8.6,2.5c0.3-0.4,0.7-0.8,1-1.3c-1.1-0.7-2.4-1.2-3.3-2.2c-0.8-0.8-1-2-1.5-3
			c1-0.3,2.1-0.7,3.1-0.8c1-0.1,2.1,0.3,3.3,0.5c-0.5-2.4-1.6-3.3-4-2.9c-1.5,0.3-3.2-0.2-4.8-0.5c-1.7-0.4-3.3-1.1-4.9-1.4
			c-2.1-0.4-2.7,1.2-2.1,2.6c0.6,1.4,1.9,2.6,3.1,4.1c-0.5,0.4-1.4,1-2.4,1.9C616.5,479.5,617.2,480.1,618.2,480.9z M619.3,464.7
			c-0.1,0.3-0.3,0.6-0.4,0.9c1.8,3,5.4,2.3,8,3.7c0.2-0.3,0.3-0.6,0.5-1C624.7,467.1,622,465.9,619.3,464.7z"/>
		<path class="st1" d="M669.4,505.1c3.9-1,7.8-1.9,11.8-2.9c0.3,2.3,2.7,2.3,4.3,1.7c1.6-0.5,2.8-2.2,4.2-3.4
			c3.8,2.1,3.9,2.3,1.6,8.7c1.3-0.4,2.5-0.4,3.1-1c0.4-0.4,0.1-1.6,0.1-2.5c-0.1-0.9-0.3-1.8-0.3-2.8c-0.1-1-0.1-2.1-0.2-3.7
			c1,0.2,1.9,0.4,2.9,0.7c1.5,0.4,2.9,0.8,4.3,1.3c0.1,0.8,0.1,1.7,0.2,3.3c0.9-1.1,1.7-1.7,1.6-2.1c-0.1-0.6-0.9-1-1.4-1.5
			c-1.1-0.6-2.1-1.2-3.3-1.8c2.3-1.7,4.5-1.8,6.6-0.3c0.6,0.4,1.6,0.8,2.3,0.6c0.9-0.2,1.7-1.2,2.6-1.6c1-0.4,2.1-0.4,3.1-0.5
			c0.3-3.2,1.4-3.9,3.8-2.2c-0.6,0.7-1.2,1.5-1.8,2.2c5,3,5,3.1,3.5,6.3c-1.4-1.2-2.6-2.8-4.2-3.4c-1.1-0.4-2.8,0.8-4.3,1.3
			c0.3,0.8,0.7,1.3,0.6,1.8c-0.1,0.7-0.5,1.3-0.7,1.9c-0.6-0.5-1.4-0.8-1.9-1.4c-0.5-0.6-0.8-1.4-1.2-2.2c-0.2,0.8-0.4,1.6-0.6,2.5
			c-0.1,0.3-0.1,0.7-0.1,0.6c-2.8,0.8-5.3,1.5-7.8,2.3c-0.3,0.1-0.3,1.1-0.5,1.7c1,0.3,1.8,0.6,2.9,0.9c-0.4,0.9-0.8,1.5-1.1,2.2
			c-0.1-0.2-0.2-0.4-0.3-0.7c-2,0.4-4,0.7-6,1.1c-0.7,0.1-1.5,0.5-2.1,0.4c-3.5-1-7.3,0.3-10.5-0.3c-7.1-1.1-14.4-0.6-21.2-3
			c-0.6-0.2-1.4-0.2-1.7-0.7c-0.4-0.5-0.5-1.4-0.7-2.1c0.7-0.2,1.5-0.7,2-0.5c1.9,0.7,3.8,1.7,5.8,0.2c-0.9-0.6-1.7-1.1-3-2
			c4-1.1,7.3-2,10.7-2.9c0.1,0.3,0.3,0.5,0.4,0.8c-1.3,0.8-2.5,1.6-3.8,2.3c-0.1,0.2-0.2,0.3-0.3,0.5
			C668.9,505.1,669.1,505.1,669.4,505.1z M689,505.4c-2.3,0.2-4.1,0.3-5.8,0.6c-0.4,0.1-0.9,0.9-0.9,1.4c0.1,0.4,0.8,1,1.3,1
			C685.5,508.4,687.5,508.2,689,505.4z M674.8,510c0.3,0.1,0.6,0.3,0.9,0.4c0.7-1.4,1.3-2.7,1.9-4.1c0,0-0.8-0.4-1.3-0.6
			c-0.6,1.4-1.1,2.7-1.7,4.1C674.7,509.9,674.8,510,674.8,510z"/>
		<path class="st1" d="M721.6,505.3c1.4-2.8,2.8-5.6,4.1-8.4c-0.4-0.2-0.8-0.4-1.2-0.6c-0.4,0.8-0.9,1.6-1.4,2.3
			c-0.6,0.9-1.2,1.7-1.9,2.5c-0.1-0.9-0.2-1.9-0.4-2.8c-0.2-0.9-0.5-1.9-1-2.5c-0.5-0.6-1.4-0.7-2.2-1c0.2-0.5,0.5-1,0.7-1.5
			c1.6-0.3,3.2-0.7,5-1.1c0-2.5,2-1.5,3.4-0.8c2.5,1.4,4.8,3,7,4.8c0.7,0.6,0.8,1.9,1.2,2.9c-0.4,0.3-0.8,0.5-1.2,0.8
			c-0.3-0.8-0.7-1.6-1-2.3c-0.2-0.1-0.4-0.1-0.6-0.2c-0.5,3.5-2.6,4.6-5.5,4.8c-0.8,0.1-1.5,1.6-2.3,2.3c-0.7,0.6-1.6,1.1-2.5,1.7
			C721.8,505.9,721.7,505.6,721.6,505.3z"/>
		<path class="st1" d="M759,494c1.8,0.8,3.4,1.5,5.4,2.3c-5.2,0.9-9.7-0.4-11.2-3c-2.8,2.2-5.7,1.3-6.2-2.4
			c-0.4-3.1-1.7-3.8-4.3-3.5c-0.2,0-0.4-0.2-0.7-0.4c0.8-2.2,2.2-2.6,4.2-1.2c2.8,2,5.6,4,8.5,5.8c0.4,0.2,1.3,0.1,1.6-0.2
			c0.3-0.3,0.3-1.2,0.1-1.6c-0.3-0.5-1-0.7-1.5-1c0.1-0.3,0.2-0.6,0.3-0.8c1.4,0.5,2.7,0.9,3.6,1.2c1.8-1.8,3.4-3.5,5.2-5
			c0.5-0.4,1.6-0.1,2.4,0.1c0.4,0.1,0.9,0.9,0.8,1.1c-0.3,0.5-0.9,1.2-1.4,1.3C761.5,487.4,759.8,490.2,759,494z"/>
		<path class="st1" d="M720.3,555.4c-0.4,2-1.3,3.3-3.7,3.1c-0.8-0.1-1.7,0.6-3,1.2c1.3,1,2.1,1.5,3.4,2.5c-3,0-5.2,0-7.7,0
			c1.9-2.9,3.5-5.5,5.4-8.4c0.7,1,1.1,1.7,1.7,2.5C717.7,556,719,555.7,720.3,555.4C720.4,555.4,720.3,555.4,720.3,555.4z"/>
		<path class="st1" d="M757.2,515.7c-0.1-0.6-0.3-1.2-0.4-1.8c-0.6,0.2-1.3,0.4-2.3,0.7c0.2-1.1,0.4-2,0.6-3
			c0.9,0.4,1.5,0.7,2.7,1.3c0-2.7,0-5.1,0-7.8C762.4,508.2,761.9,513.4,757.2,515.7z"/>
		<path class="st1" d="M608.7,470.6C608.7,470.6,608.7,470.6,608.7,470.6c0.2,1.5,0.6,3.1,0.7,4.7c0,0.4-0.2,1-0.5,1.3
			c-0.1,0.1-1.1-0.2-1.1-0.4c-0.4-3.4-3.7-3.2-5.6-4.8c-0.3-0.3-0.7-0.5-1.2-0.8c0.6-0.9,1-1.7,1.3-2.2
			C604.7,469.2,606.7,469.9,608.7,470.6z"/>
		<path class="st1" d="M754.9,524.1c-0.5-0.3-1.1-0.5-1.6-0.8c0.1-0.3,0.2-0.5,0.3-0.8c2.6,0.1,2.3-4.6,5.4-3
			c1.2,0.6,1.8,2.7,2.6,4.1c-0.2,0.3-0.4,0.5-0.6,0.8C759,524.3,756.9,524.2,754.9,524.1C754.9,524.1,754.9,524.1,754.9,524.1z"/>
		<path class="st1" d="M801.2,528.2c-4.6,0.6-9.4-0.5-13.8-3.5c2.4,0.2,4.8,0.4,6.9,0.5C796.5,526.2,798.6,527.1,801.2,528.2z"/>
		<path class="st1" d="M745.1,495.7c2.9,1.8,5.3,3.2,8.2,4.9C748,502.4,745.3,500.9,745.1,495.7z"/>
		<path class="st1" d="M770.8,493.5c0.5-0.3,0.9-0.7,1.3-0.7c1.2-0.2,2.4-0.2,3.6-0.3c-0.3,1-0.6,2-1,3c-0.6,1.2-1.3,2.4-2,3.6
			c-0.3,0-0.5,0-0.8,0C771.5,497.4,771.2,495.6,770.8,493.5z"/>
		<path class="st1" d="M736.8,494.3c-1.9,0.7-4.3-0.7-8.8-5.2c2.7-1.2,3-1.1,4.8,1C734,491.4,735.3,492.7,736.8,494.3z"/>
		<path class="st1" d="M715.5,509.1c-1.9-0.3-3.8-0.5-6.1-0.9c-0.2,1.8-0.4,3.3-0.6,4.9c-0.3,0-0.5,0.1-0.8,0.1
			c-0.1-1.6-0.7-3.5,0-4.6c0.6-1,2.6-1.3,4-1.7c1.2-0.4,2.5-0.6,4-0.9C715.9,506.7,715.7,507.9,715.5,509.1
			C715.5,509.1,715.5,509.1,715.5,509.1z"/>
		<path class="st1" d="M733.1,487.5c3.7-1.2,6.4,0.8,7.5,5.7C738.1,491.3,735.6,489.4,733.1,487.5z"/>
		<path class="st1" d="M723.1,543.9c-2.9,3.7-6.2,6.7-11.2,7.4c3.6-2.7,7.2-5.3,10.8-8C722.8,543.5,723,543.7,723.1,543.9z"/>
		<path class="st1" d="M721.7,509.6c1.7,1.4,3.5,2.6,2,4.9c-1.1,1.6-5.5,1.6-7.2,0c1.7-0.2,3.3-0.1,4.8-0.6
			C723.9,513,721.6,511.3,721.7,509.6z"/>
		<path class="st1" d="M780.3,513.5c0.8,0.7,1.7,1.3,2.4,2c1,1.1,1.9,2.4,2.9,3.6c0.7,0.8,1.4,1.6,2.5,2.8
			C784.4,521.3,780.8,517.6,780.3,513.5z"/>
		<path class="st1" d="M609.6,486.2c1.2,1.1,0.3,4.5,3.8,3.1c0.1,1.1,0.2,2.1,0.3,3.6c-1.4-0.3-3.2-0.2-3.6-0.8
			c-0.9-1.8-1.1-3.8-1.6-5.8C608.9,486.3,609.2,486.3,609.6,486.2z"/>
		<path class="st1" d="M727.9,520.4c-2.3-0.4-4.5-0.9-6.8-1.3c0-0.4,0.1-0.7,0.1-1.1c2.3,0,4.6,0,6.9,0
			C728.1,518.7,728,519.6,727.9,520.4C727.9,520.4,727.9,520.4,727.9,520.4z"/>
		<path class="st1" d="M612,481.9C612,481.9,612,481.9,612,481.9c-1.2,1.8-3.9,1.3-5.5-0.9c-0.2-0.3-0.3-0.6-0.5-0.9
			c0-0.2,0-0.4,0-0.7c1.6-1,3-1.5,4,0.8C610.3,481,611.3,481.4,612,481.9z"/>
		<path class="st1" d="M737,497.4c1.4-0.2,2.6-0.5,3.7-0.4c0.8,0.1,1.9,0.8,2.1,1.4c0.3,0.7-0.4,1.7-0.6,2.5c-0.7-0.3-1.5-0.5-2.1-1
			C739.1,499.3,738.2,498.4,737,497.4z"/>
		<path class="st1" d="M606,479.5c0,0.2,0,0.4,0,0.7c-4.3-0.8-5-1.6-4.5-5.3C604,475.4,605.2,477.2,606,479.5z"/>
		<path class="st1" d="M656.7,495.5c3.4,0,5.7,1.8,7.3,4.6c-0.2,0.3-0.3,0.5-0.5,0.8c-2.4-1.6-4.8-3.1-7.2-4.7
			C656.5,496,656.6,495.7,656.7,495.5z"/>
		<path class="st1" d="M777.4,420.7c-0.3,0-0.5,0-0.8,0c-1.5-3.8-3.1-7.5-4.6-11.3c0.2,0,0.4,0,0.7,0
			C774.2,413.2,775.8,417,777.4,420.7z"/>
		<path class="st1" d="M766.4,524.3c-0.4,1.4-0.7,2.4-1.3,4.2c-1.3-1.4-3.4-2.8-3.2-3.4C762.7,523,764.6,524,766.4,524.3z"/>
		<path class="st1" d="M729.7,508.7c2.5,2.3,2.9,3.9,0.9,6.6c-0.6-2.5-1.1-4.4-1.7-6.4C729.1,508.9,729.4,508.8,729.7,508.7z"/>
		<path class="st1" d="M827.7,505.8c1.7,1.4,3.9,2.5,3.8,5c-1.5-0.8-3-1.6-4.9-2.7C826.8,507.6,827.3,506.7,827.7,505.8
			C827.7,505.8,827.7,505.8,827.7,505.8z"/>
		<path class="st1" d="M755.8,527.9c2,0,3.7,0,5.8,0C759,530.8,758.2,530.8,755.8,527.9z"/>
		<path class="st1" d="M715.5,509.1c0.9,0.2,1.8,0.4,2.7,0.7c0.1,0.3,0.2,0.5,0.3,0.8c-1.7,1.1-3.5,2.2-5.2,3.3c0,0,0,0,0,0
			C714.1,512.3,714.8,510.7,715.5,509.1C715.5,509.1,715.5,509.1,715.5,509.1z"/>
		<path class="st1" d="M822.8,507.8c0.4,1.4,0.7,2.8,1.1,4.2c-0.6,0.1-1.6,0.3-1.6,0.2c-0.4-1.3-0.7-2.7-1-4
			C821.8,508,822.3,507.9,822.8,507.8z"/>
		<path class="st1" d="M751.1,520.6c-2.6-0.4-5.1-0.7-7.7-1.1c0-0.2,0.1-0.5,0.1-0.7C746.1,518.9,748.9,518,751.1,520.6z"/>
		<path class="st1" d="M643.4,484.3C643.4,484.3,643.5,484.3,643.4,484.3c-1.2-0.8-2.4-1.5-4.1-2.5c0.6-0.5,1.3-1.4,1.9-1.3
			c0.7,0,1.5,0.9,1.8,1.5C643.4,482.7,643.3,483.6,643.4,484.3z"/>
		<path class="st1" d="M754.9,524.1c-0.2,2.5-0.9,2.9-4.1,2.1C751.2,523.7,753.3,524.4,754.9,524.1
			C754.9,524.1,754.9,524.1,754.9,524.1z"/>
		<path class="st1" d="M766,492.3c1-0.4,2-0.9,3.1-1.1c0.2,0,0.6,0.8,0.9,1.2c-1.2,0.4-2.3,0.9-3.5,1.3
			C766.3,493.2,766.2,492.8,766,492.3z"/>
		<path class="st1" d="M754.4,507.5c-3.9,0.9-4.5,0.5-4.1-2.4C751.6,505.8,752.7,506.5,754.4,507.5z"/>
		<path class="st1" d="M682.1,497.8c1.2-1.1,2.1-1.9,3.3-2.9C685.9,498.3,685.7,498.5,682.1,497.8z"/>
		<path class="st1" d="M760.2,533.4c1,0,1.9,0,3.6,0c-0.7,1.1-1.1,1.8-1.6,2.5c-0.7-0.7-1.4-1.4-2-2
			C760.2,533.7,760.2,533.6,760.2,533.4z"/>
		<path class="st1" d="M769.9,405.7c-1-1.3-1.9-2.5-2.9-3.8c0.3-0.2,0.5-0.3,0.8-0.5c0.8,1.3,1.6,2.6,2.4,3.9
			C770.1,405.5,770,405.6,769.9,405.7z"/>
		<path class="st1" d="M770.2,405.4c0.5,0.7,1,1.4,1.5,2.2c-0.2,0.1-0.4,0.3-0.6,0.4c-0.4-0.7-0.9-1.5-1.3-2.2
			C770,405.6,770.1,405.5,770.2,405.4z"/>
		<path class="st1" d="M772.7,409.4c-0.2,0-0.4,0-0.7,0c-0.2-0.3-0.3-0.7-0.5-1c0.1-0.1,0.2-0.2,0.4-0.3
			C772.1,408.6,772.4,409,772.7,409.4z"/>
		<path class="st1" d="M713.3,513.9c-0.1,0.1-0.1,0.2-0.2,0.3c0-0.1,0-0.1,0-0.1C713.2,514,713.3,514,713.3,513.9
			C713.4,513.9,713.3,513.9,713.3,513.9z"/>
		<path class="st1" d="M583.4,465.9c0,0.1,0,0.2,0,0.2C583.4,466.1,583.4,466,583.4,465.9C583.4,466,583.4,465.9,583.4,465.9z"/>
		<path class="st1" d="M749.9,460.4c0.4-2,0.5-4.1,1.1-6.1c1.5-4.4,0.7-8.8-0.8-12.6c-1.1-2.9-1.3-4.8,0.1-7.3
			c0.3-0.6,0.2-1.4,0.5-2.1c0.6-1.5,0.3-2.3-1.3-2.8c-0.8-0.3-1.6-1.2-2.1-2c-0.2-0.3,0.6-1.7,0.9-1.7c1,0,2.1,0.2,2.9,0.7
			c2.3,1.6,3.2,3.9,3.4,6.7c0.1,1.7,0.8,3.4,1.1,5.1c0.1,0.8,0.4,2.1-0.1,2.5c-2,1.6-1.5,3.9-1.8,6c-0.7,3.8-1.3,7.6-2.1,11.4
			c-0.2,0.9-1.2,1.6-1.8,2.4L749.9,460.4z"/>
		<path class="st1" d="M692.7,379.6c0.8-0.3,1.6-0.9,2.4-0.9c4.5,0.4,9.1,0.9,13.6,1.3c0.4,0,0.8,0.1,1,0.3c0.6,0.5,1,1,1.5,1.6
			c-0.7,0.3-1.3,0.8-2,0.7c-1.8-0.1-3.5-0.5-5.3-0.7c-2.8-0.3-5.5-0.5-8.3-0.8c-1-0.1-2-0.5-2.9-0.8
			C692.7,380.2,692.7,379.9,692.7,379.6z"/>
		<path class="st1" d="M685.4,380.2c-0.1,0.3,0,0.7-0.2,1c-0.2,0.3-0.5,0.5-0.8,0.6c-6.2,1.7-12.5,3.5-18.8,5.2
			c-0.3,0.1-0.8-0.3-1.2-0.5C666.6,383.5,681.4,379.1,685.4,380.2z"/>
		<path class="st1" d="M748.8,387.9c0.8,0.3,1.9,0.4,2.4,1c3.3,4.4,6.6,8.9,9.8,13.4c0.8,1.2,1.8,2.4-0.1,4
			c-4-5.9-8.1-11.8-12.1-17.6C748.8,388.4,748.8,388.2,748.8,387.9z"/>
		<path class="st1" d="M609.4,418.1c1.1-2.5,2-4.7,3-7c0.7-1.7,1.4-3.5,2.3-5.1c0.3-0.6,1.1-0.9,1.6-1.4c0.2,0.8,0.8,1.6,0.7,2.3
			c-0.3,1.2-1,2.3-1.4,3.4c-1,2.7-1.9,5.5-3,8.3c-0.3,0.8-1.1,1.3-1.6,2C610.5,419.8,610,419,609.4,418.1z"/>
		<path class="st1" d="M642,454.4c-0.2-1.3-0.4-2.2-0.6-3.6c-1.8,0.6-3.3,1.2-4.9,1.8c2.1-3.9,5.7-3.7,10.8,0.6
			C645.4,453.6,643.8,454,642,454.4z"/>
		<path class="st1" d="M749.5,407.8c-3-3.8-6.4-6.2-8.7-10.5C744.3,398.5,749.5,404.6,749.5,407.8z"/>
		<path class="st1" d="M762,407c0.6,0.5,1.5,1,1.7,1.6c0.8,2.1,1.3,4.2,1.8,6.4c0.1,0.4-0.5,1-0.8,1.5c-0.4-0.3-1.1-0.5-1.2-0.9
			c-0.9-2.7-1.6-5.4-2.4-8.1C761.4,407.4,761.7,407.2,762,407z"/>
		<path class="st1" d="M665.9,461.7c1.3-5.2,4-7.4,8.1-6.5C671.1,457.6,668.5,459.6,665.9,461.7z"/>
		<path class="st1" d="M707,468.1c0.7,1.6,1.4,3.2,2.1,4.9c0.4-0.3,0.9-0.5,1.3-0.8c-0.6,1-1.2,2-2,3.1c-1.2-0.9-2.2-1.5-3.1-2.2
			c0.3-1.4,0.5-2.8,0.7-4.1C706.4,468.7,706.7,468.4,707,468.1z"/>
		<path class="st1" d="M714,462.4c-1,1-1.8,1.7-2.7,2.5c-1.7-0.8-3.9-1-3.8-3.9c0-0.6-1.1-1.3-1.5-2.4c0.8,0.4,2.2,0.5,2.4,1.1
			c0.7,2.2,1.8,2.9,4,2C712.7,461.7,713.2,462.1,714,462.4z"/>
		<path class="st1" d="M632.6,395.4c-0.8-3.2,1.7-6.6,5.7-8.1C636.3,390.2,634.6,392.6,632.6,395.4z"/>
		<path class="st1" d="M674.2,458.2c2-1.6,3.6-4.4,7-2.7C679.9,459.1,676.6,457.7,674.2,458.2z"/>
		<path class="st1" d="M719.3,383.1c2.9,1.5,5.2,2.7,7.5,3.9C723.2,387.6,720.3,386.1,719.3,383.1z"/>
		<path class="st1" d="M739.9,382.2c-2-1.5-3.9-2.9-5.9-4.4C737.6,377.6,739.8,379.2,739.9,382.2z"/>
		<path class="st1" d="M717.5,461.6c-1.1,5.5-1.1,5.5-3.2,5.7c0.9-2.2,1.6-4.2,2.4-6.2C716.9,461.3,717.2,461.5,717.5,461.6z"/>
		<path class="st1" d="M746.6,387.3c-1.5-1.4-3-2.7-4.4-4.1c0.3-0.4,0.7-0.7,1-1.1c1.5,1.3,3,2.7,4.5,4
			C747.3,386.5,746.9,386.9,746.6,387.3z"/>
		<path class="st1" d="M679.7,471c-0.1,1-0.2,1.9-0.2,2.2c-1.5-0.9-3-1.9-4.6-2.8C675.6,469.5,675.6,469.5,679.7,471z"/>
		<path class="st1" d="M716.4,380.8c0.4,0.9,0.9,1.9,1.2,2.9c0,0.1-1.2,0.9-1.5,0.8c-1-0.4-1.8-1.1-2.7-1.7c0.6-0.4,1.2-0.7,1.8-1.1
			C715.6,381.4,716,381.1,716.4,380.8z"/>
		<path class="st1" d="M620.7,455c-2.1-0.4-4.3-0.9-6.4-1.3c0.1-0.4,0.2-0.7,0.2-1.1c2.1,0.4,4.2,0.9,6.3,1.3
			C620.7,454.3,620.7,454.6,620.7,455z"/>
		<path class="st1" d="M687,467c2.9,1.8,3.1,3.3,0.7,4.9C687.5,470.3,687.3,468.8,687,467z"/>
		<path class="st1" d="M728.6,389.2c0.7-0.5,0.9-0.7,0.9-0.6c1.1,0.8,2.2,1.5,3.2,2.3c0,0-0.3,0.5-0.5,0.8
			C731,390.9,729.9,390.1,728.6,389.2z"/>
		<path class="st1" d="M719.1,442.6c1.3,0.3,2.7,0.6,4,0.8c-0.1,0.5-0.2,0.9-0.3,1.4c-1.4-0.3-2.7-0.6-4.1-0.8
			C718.9,443.5,719,443.1,719.1,442.6z"/>
		<path class="st1" d="M698.4,460c1.2,1.3,2.4,2.5,3.6,3.8c-0.3,0.3-0.6,0.6-0.9,0.9c-1.2-1.3-2.3-2.6-3.5-3.9
			C697.8,460.5,698.1,460.2,698.4,460z"/>
		<path class="st1" d="M750,460.6c-0.1,0.1-0.2,0.2-0.3,0.3c0-0.2,0.1-0.3,0.1-0.5C749.9,460.4,750,460.6,750,460.6z"/>
		<path class="st1" d="M744.9,536.8c-3.1,1.7-5.1,4.9-8.8,4.6c0-0.3-0.1-0.6,0-0.7c2.4-1.1,4.4-2.2,5.9-4.7c0.7-1.2,3.9-1.1,6-1.1
			c2,0,4,0.6,6.1,1c0.2,0.9,0.5,2,0.8,2.9c-1.2,0.6-2.2,1.1-3.2,1.7c-1.4,0.8-2.9,2.3-4.2,2.2c-1.9-0.1-2.1-2.2-2.2-4
			C745.3,538.1,745.1,537.7,744.9,536.8z"/>
		<path class="st1" d="M735,548.6c0,3,2.8,2.2,4.7,3.7c-1.1,0.7-1.9,1.5-2.8,1.6c-0.7,0-1.5-0.9-2.1-1.5c-0.4-0.4-0.7-1.1-0.9-1.6
			c-0.7-1.9-1.8-2.5-3.7-1.3c-0.7,0.4-1.7,0.1-2.6,0.1c-0.1-0.3-0.1-0.5-0.2-0.8c0.5-0.4,0.9-1.1,1.5-1.3c2.1-0.5,4.4-0.4,6.4-1.2
			c1.8-0.7,3.3-2.3,5-3.4c0.8-0.5,1.7-0.7,2.6-1c-0.3,0.9-0.5,2-1,2.7c-1,1.2-2.1,2.2-3.4,3C737.4,548.1,736.2,548.2,735,548.6z"/>
		<path class="st1" d="M748.6,544.8c0.2,0.6,0.3,1.3,0.5,1.8c-2.7,1.2-5.1,2.3-7.6,3.4c-1.4-1.4-0.1-1.9,1-2.5
			C744.4,546.7,746.3,545.8,748.6,544.8z"/>
		<path class="st1" d="M725.9,551.5c-1.2,0.5-2.4,1-3.7,1.5c-0.2-0.6-0.5-1.3-0.7-1.9c1.2-0.4,2.5-0.9,3.7-1.3
			C725.5,550.3,725.7,550.9,725.9,551.5z"/>
		<path class="st1" d="M648.7,485.2c1.5-1.2,3.2-1.6,5.3-0.7c1.2,0.5,2.6,0.9,3.8,0.9c3.2-0.2,5.4,1.4,7.7,3.4c-1.9,2-3.9,1.4-6,0.6
			C656,488.1,652.4,486.7,648.7,485.2z"/>
		<path class="st1" d="M661.6,476.4c1.9,1.8,4.2,3,2.4,6.3c2-0.5,3.3-0.8,4.9-1.2c-1,1.8-1.8,3.2-2.9,5.1c-1.6-1.4-3.4-3-5.4-4.8
			C660.9,480.4,661.2,478.6,661.6,476.4z"/>
		<path class="st1" d="M655.6,473.9c3.4,0.2,3.7,1,1.8,4C656.7,476.5,656.2,475.3,655.6,473.9z"/>
		<path class="st1" d="M803.7,518.3c-1.4-0.4-2.6-0.6-3.5-1.2c-0.7-0.4-0.9-1.5-1.3-2.3c0.9-0.3,1.9-0.9,2.8-0.8
			c0.9,0.1,1.8,0.8,2.6,1.4c0.5,0.4,1.2,1.3,1.1,1.6C805,517.5,804.2,517.9,803.7,518.3z"/>
		<path class="st1" d="M574.4,462.9c-0.9,0.5-1.7,1.4-2.7,1.5c-2.5,0.2-5,0.1-7.5,0.1c0-0.4-0.1-0.7-0.1-1.1
			c3.3-0.3,6.6-0.6,9.9-0.9C574.1,462.6,574.2,462.7,574.4,462.9z"/>
		<path class="st1" d="M574,462.5c0.2,0,0.4-0.1,0.6-0.1c-0.1,0.2-0.2,0.3-0.3,0.5C574.2,462.7,574.1,462.6,574,462.5z"/>
		<path class="st1" d="M619.3,464.7c2.7,1.2,5.3,2.4,8,3.6c-0.2,0.3-0.3,0.6-0.5,1c-2.6-1.4-6.2-0.7-8-3.7
			C619,465.3,619.2,465,619.3,464.7z"/>
		<path class="st1" d="M689,505.4c-1.5,2.8-3.5,3-5.4,3c-0.4,0-1.2-0.6-1.3-1c-0.1-0.4,0.5-1.3,0.9-1.4
			C684.9,505.8,686.7,505.7,689,505.4z"/>
		<path class="st1" d="M674.8,510c0-0.1-0.1-0.2-0.1-0.2c0.5-1.4,1.1-2.7,1.7-4.1c0.4,0.2,1.3,0.6,1.3,0.6c-0.6,1.4-1.2,2.8-1.9,4.1
			C675.5,510.3,675.2,510.2,674.8,510z"/>
		<path class="st1" d="M685.8,427.1c2,4.2-1.4,7.1-2.5,11.1C681.6,432,682.5,428.1,685.8,427.1z"/>
		<path class="st1" d="M702.9,437.7c-1-1.8-1.9-3.5,0.1-5.1c0.5-0.4,2-0.3,2.4,0.1C706.3,433.8,704.9,436.5,702.9,437.7z"/>
		<path class="st1" d="M679.8,432.6c0.7,2,0.9,3.9-1.4,4.9c-0.5,0.2-1.7-0.1-1.9-0.5C675.8,435.7,677.7,433.2,679.8,432.6z"/>
		<path class="st1" d="M700.3,441.3c0.7,0.4,1.8,0.7,2.5,1.5c0.6,0.6,0.8,1.7,0.9,2.6c0,0.4-0.5,1.3-0.9,1.3
			c-0.4,0.1-1.3-0.4-1.4-0.9C700.8,444.2,700.5,442.4,700.3,441.3z"/>
		<path class="st1" d="M692.2,444.2c0.7-2.4,1.3-4.8,2-7.2c0.4,0.1,0.8,0.2,1.2,0.4c-0.7,2.4-1.4,4.8-2.1,7.2
			C693,444.4,692.6,444.3,692.2,444.2z"/>
		<path class="st1" d="M736,446.1c0.6,3.1-1.1,5.6-2.3,8.3c-0.2-0.1-0.5-0.1-0.7-0.2c0.7-2.8,1.3-5.5,2-8.3
			C735.3,446,735.6,446,736,446.1z"/>
		<path class="st1" d="M643.6,437.3c0.5-1.9,1.1-3.9,1.6-5.8c0.4,0.1,0.7,0.2,1.1,0.3c-0.6,1.9-1.1,3.9-1.7,5.8
			C644.2,437.5,643.9,437.4,643.6,437.3z"/>
	</g>
</g>
</svg>
