<?xml version="1.0" encoding="utf-8"?>
<!-- Generator: Adobe Illustrator 27.1.1, SVG Export Plug-In . SVG Version: 6.00 Build 0)  -->
<svg version="1.1" id="Layer_1" xmlns="http://www.w3.org/2000/svg" xmlns:xlink="http://www.w3.org/1999/xlink" x="0px" y="0px"
	 viewBox="0 0 1405 1081.9" style="enable-background:new 0 0 1405 1081.9;" xml:space="preserve">
<style type="text/css">
	.st0{fill:none;stroke:#FFFFFF;stroke-width:2;stroke-dasharray:2,2;}
	.st1{font-family:'Courier-Oblique';}
	.st2{font-size:20px;}
	.st3{font-family:'Courier';}
	.st4{font-size:16px;}
	.st5{font-size:16.0005px;}
	.st6{font-size:20.001px;}
	.st7{font-size:20.0007px;}
	.st8{fill:none;}
	.st9{font-family:'ArialMT';}
	.st10{font-size:12px;}
</style>
<path class="st0" d="M137.1,138.2l565.7,406.4"/>
<text transform="matrix(0.8121 0.5835 -0.5835 0.8121 142.4541 129.0711)" class="st1 st2">Curatorial Team</text>
<text transform="matrix(0.8856 0.4644 -0.4644 0.8856 185.8161 258.4961)" class="st3 st4">Tega Brain</text>
<text transform="matrix(0.9416 0.3368 -0.3368 0.9416 259.4786 374.5395)" class="st3 st4">Alex Nathanson</text>
<text transform="matrix(0.9789 0.2045 -0.2045 0.9789 69.8663 400.9937)" class="st3 st5">Benedetta Piantella</text>
<text transform="matrix(0.9987 5.126262e-02 -5.126262e-02 0.9987 134.6974 504.4546)" class="st3 st4">Kate Silzer</text>
<path class="st0" d="M8.4,599.1l694.4-54.3"/>
<text transform="matrix(0.997 -7.801203e-02 7.801203e-02 0.997 6.5982 588.6124)" class="st1 st6">Advisor</text>
<text transform="matrix(0.9763 -0.2164 0.2164 0.9763 125.0333 658.3485)" class="st3 st4">Taeyoon Choi</text>
<path class="st0" d="M159.8,981.7l543-436.2"/>
<text transform="matrix(0.7796 -0.6263 0.6263 0.7796 152.4251 974.0007)" class="st1 st2">Designer</text>
<text transform="matrix(0.6845 -0.729 0.729 0.6845 288.7368 966.3622)" class="st3 st4">Sam Griffith</text>
<path class="st0" d="M224.7,38.1l478.1,506.5"/>
<text transform="matrix(0.6864 0.7272 -0.7272 0.6864 230.5291 28.9785)" class="st3 st2">Solar Protocol Online Exhibition</text>
<path class="st0" d="M47.7,782.2l655.1-236.7"/>
<text transform="matrix(0.9405 -0.3399 0.3399 0.9405 43.1118 772.589)" class="st1 st7">Funder</text>
<text transform="matrix(0.8838 -0.4678 0.4678 0.8838 177.6252 807.8082)" class="st3 st4">Mozilla Creative Media Award</text>
<path class="st0" d="M702.8,544.6l417.6-510.7"/>
<text transform="matrix(0.633 -0.7742 0.7742 0.633 1058.7261 91.8037)" class="st1 st7">Artists</text>
<path id="SVGID_x5F_00000030445647495120422570000006697861103467412879_x5F_" class="st8" d="M879.9,415.6L1123.4,238"/>
<text transform="matrix(0.8079 -0.5893 0.5893 0.8079 927.9937 380.5576)" class="st9 st10"> </text>
<text transform="matrix(0.8079 -0.5893 0.5893 0.8079 930.6873 378.5933)" class="st3 st4">K</text>
<text transform="matrix(0.8079 -0.5893 0.5893 0.8079 938.4446 372.9351)" class="st3 st4">r</text>
<text transform="matrix(0.8079 -0.5893 0.5893 0.8079 946.202 367.2773)" class="st3 st4">i</text>
<text transform="matrix(0.8079 -0.5893 0.5893 0.8079 953.9595 361.6191)" class="st3 st4">s</text>
<text transform="matrix(0.8079 -0.5893 0.5893 0.8079 961.7169 355.9614)" class="st3 st4">t</text>
<text transform="matrix(0.8079 -0.5893 0.5893 0.8079 969.4742 350.3032)" class="st3 st4">i</text>
<text transform="matrix(0.8079 -0.5893 0.5893 0.8079 977.2318 344.645)" class="st3 st4">n</text>
<text transform="matrix(0.8079 -0.5893 0.5893 0.8079 984.9891 338.9873)" class="st3 st4"> </text>
<text transform="matrix(0.8079 -0.5893 0.5893 0.8079 992.7464 333.3291)" class="st3 st4">L</text>
<text transform="matrix(0.8079 -0.5893 0.5893 0.8079 1000.504 327.6714)" class="st3 st4">u</text>
<text transform="matrix(0.8079 -0.5893 0.5893 0.8079 1008.2613 322.0132)" class="st3 st4">c</text>
<text transform="matrix(0.8079 -0.5893 0.5893 0.8079 1016.0189 316.3555)" class="st3 st4">a</text>
<text transform="matrix(0.8079 -0.5893 0.5893 0.8079 1023.7762 310.6973)" class="st3 st4">s</text>
<text transform="matrix(0.8079 -0.5893 0.5893 0.8079 1031.5334 305.0396)" class="st3 st4"> </text>
<text transform="matrix(0.8079 -0.5893 0.5893 0.8079 1039.291 299.3813)" class="st3 st4">a</text>
<text transform="matrix(0.8079 -0.5893 0.5893 0.8079 1047.0483 293.7236)" class="st3 st4">n</text>
<text transform="matrix(0.8079 -0.5893 0.5893 0.8079 1054.8057 288.0654)" class="st3 st4">d</text>
<text transform="matrix(0.8079 -0.5893 0.5893 0.8079 1062.5632 282.4077)" class="st3 st4"> </text>
<text transform="matrix(0.8079 -0.5893 0.5893 0.8079 1070.3206 276.7495)" class="st3 st4">J</text>
<text transform="matrix(0.8079 -0.5893 0.5893 0.8079 1078.0779 271.0918)" class="st3 st4">o</text>
<text transform="matrix(0.8079 -0.5893 0.5893 0.8079 1085.8354 265.4336)" class="st3 st4">e</text>
<text transform="matrix(0.8079 -0.5893 0.5893 0.8079 1093.5928 259.7759)" class="st3 st4"> </text>
<text transform="matrix(0.8079 -0.5893 0.5893 0.8079 1101.3501 254.1177)" class="st3 st4">M</text>
<text transform="matrix(0.8079 -0.5893 0.5893 0.8079 1109.1077 248.46)" class="st3 st4">c</text>
<text transform="matrix(0.8079 -0.5893 0.5893 0.8079 1116.865 242.8018)" class="st3 st4">Kay</text>
<text transform="matrix(1 0 0 1 -12 -81.2645)" class="st9 st10"> </text>
<path id="SVGID_x5F_00000009552687488634254550000004728774613620237756_x5F_" class="st8" d="M1079.1,357.5l118-58.8"/>
<text transform="matrix(0.895 -0.446 0.446 0.895 1102.406 345.9217)" class="st9 st10"> </text>
<text transform="matrix(0.895 -0.446 0.446 0.895 1105.3899 344.4349)" class="st3 st4">H</text>
<text transform="matrix(0.895 -0.446 0.446 0.895 1113.9836 340.1526)" class="st3 st4">a</text>
<text transform="matrix(0.895 -0.446 0.446 0.895 1122.5774 335.8702)" class="st3 st4">k</text>
<text transform="matrix(0.895 -0.446 0.446 0.895 1131.171 331.588)" class="st3 st4">e</text>
<text transform="matrix(0.895 -0.446 0.446 0.895 1139.7648 327.3057)" class="st3 st4">e</text>
<text transform="matrix(0.895 -0.446 0.446 0.895 1148.3585 323.0235)" class="st3 st4">m</text>
<text transform="matrix(0.895 -0.446 0.446 0.895 1156.9523 318.741)" class="st3 st4"> </text>
<text transform="matrix(0.895 -0.446 0.446 0.895 1165.5459 314.4588)" class="st3 st4">A</text>
<text transform="matrix(0.895 -0.446 0.446 0.895 1174.1396 310.1766)" class="st3 st4">d</text>
<text transform="matrix(0.895 -0.446 0.446 0.895 1182.7334 305.8941)" class="st3 st4">a</text>
<text transform="matrix(0.895 -0.446 0.446 0.895 1191.3271 301.6119)" class="st3 st4">m</text>
<text transform="matrix(1 0 0 1 -12 -81.2645)" class="st9 st10"> </text>
<path id="SVGID_x5F_00000023282447135145395510000002316646578381201321_x5F_" class="st8" d="M1042.7,502.4l153.7-19.5"/>
<text transform="matrix(0.992 -0.1259 0.1259 0.992 1073.0571 498.584)" class="st9 st10"> </text>
<text transform="matrix(0.992 -0.1259 0.1259 0.992 1076.3646 498.1643)" class="st3 st4">E</text>
<text transform="matrix(0.992 -0.1259 0.1259 0.992 1085.8898 496.9559)" class="st3 st4">v</text>
<text transform="matrix(0.992 -0.1259 0.1259 0.992 1095.415 495.7474)" class="st3 st4">e</text>
<text transform="matrix(0.992 -0.1259 0.1259 0.992 1104.9402 494.5389)" class="st3 st4">r</text>
<text transform="matrix(0.992 -0.1259 0.1259 0.992 1114.4655 493.3305)" class="st3 st4">e</text>
<text transform="matrix(0.992 -0.1259 0.1259 0.992 1123.9906 492.122)" class="st3 st4">s</text>
<text transform="matrix(0.992 -0.1259 0.1259 0.992 1133.5159 490.9135)" class="st3 st4">t</text>
<text transform="matrix(0.992 -0.1259 0.1259 0.992 1143.041 489.705)" class="st3 st4"> </text>
<text transform="matrix(0.992 -0.1259 0.1259 0.992 1152.5663 488.4966)" class="st3 st4">P</text>
<text transform="matrix(0.992 -0.1259 0.1259 0.992 1162.0914 487.2881)" class="st3 st4">i</text>
<text transform="matrix(0.992 -0.1259 0.1259 0.992 1171.6167 486.0797)" class="st3 st4">p</text>
<text transform="matrix(0.992 -0.1259 0.1259 0.992 1181.1418 484.8712)" class="st3 st4">k</text>
<text transform="matrix(0.992 -0.1259 0.1259 0.992 1190.6671 483.6627)" class="st3 st4">in</text>
<text transform="matrix(1 0 0 1 -12 -81.2645)" class="st9 st10"> </text>
<path id="SVGID_x5F_00000041991805493390282470000000038099819038532526_x5F_" class="st8" d="M1107.4,562.6l170.9,7.2"/>
<text transform="matrix(0.9991 4.209263e-02 -4.209263e-02 0.9991 1141.1548 564.0578)" class="st9 st10"> </text>
<text transform="matrix(0.9991 4.209263e-02 -4.209263e-02 0.9991 1144.4857 564.1982)" class="st3 st4">A</text>
<text transform="matrix(0.9991 4.209263e-02 -4.209263e-02 0.9991 1154.0787 564.6024)" class="st3 st4">l</text>
<text transform="matrix(0.9991 4.209263e-02 -4.209263e-02 0.9991 1163.6718 565.0065)" class="st3 st4">l</text>
<text transform="matrix(0.9991 4.209263e-02 -4.209263e-02 0.9991 1173.2648 565.4106)" class="st3 st4">i</text>
<text transform="matrix(0.9991 4.209263e-02 -4.209263e-02 0.9991 1182.8579 565.8148)" class="st3 st4">s</text>
<text transform="matrix(0.9991 4.209263e-02 -4.209263e-02 0.9991 1192.4509 566.219)" class="st3 st4">o</text>
<text transform="matrix(0.9991 4.209263e-02 -4.209263e-02 0.9991 1202.0439 566.6231)" class="st3 st4">n</text>
<text transform="matrix(0.9991 4.209263e-02 -4.209263e-02 0.9991 1211.6371 567.0273)" class="st3 st4"> </text>
<text transform="matrix(0.9991 4.209263e-02 -4.209263e-02 0.9991 1221.2301 567.4315)" class="st3 st4">P</text>
<text transform="matrix(0.9991 4.209263e-02 -4.209263e-02 0.9991 1230.8231 567.8356)" class="st3 st4">a</text>
<text transform="matrix(0.9991 4.209263e-02 -4.209263e-02 0.9991 1240.4161 568.2397)" class="st3 st4">r</text>
<text transform="matrix(0.9991 4.209263e-02 -4.209263e-02 0.9991 1250.0093 568.6439)" class="st3 st4">r</text>
<text transform="matrix(0.9991 4.209263e-02 -4.209263e-02 0.9991 1259.6023 569.048)" class="st3 st4">i</text>
<text transform="matrix(0.9991 4.209263e-02 -4.209263e-02 0.9991 1269.1953 569.4522)" class="st3 st4">sh</text>
<text transform="matrix(1 0 0 1 -12 -81.2645)" class="st9 st10"> </text>
<path id="SVGID_x5F_00000031909219170199999280000006318110102857249156_x5F_" class="st8" d="M864.9,580.4l168.6,35.9"/>
<text transform="matrix(0.9781 0.2083 -0.2083 0.9781 898.2004 587.5263)" class="st9 st10"> </text>
<text transform="matrix(0.9781 0.2083 -0.2083 0.9781 901.4612 588.2206)" class="st3 st4">R</text>
<text transform="matrix(0.9781 0.2083 -0.2083 0.9781 910.8521 590.2203)" class="st3 st4">o</text>
<text transform="matrix(0.9781 0.2083 -0.2083 0.9781 920.2432 592.2199)" class="st3 st4">o</text>
<text transform="matrix(0.9781 0.2083 -0.2083 0.9781 929.6343 594.2195)" class="st3 st4">p</text>
<text transform="matrix(0.9781 0.2083 -0.2083 0.9781 939.0252 596.2192)" class="st3 st4">a</text>
<text transform="matrix(0.9781 0.2083 -0.2083 0.9781 948.4163 598.2188)" class="st3 st4"> </text>
<text transform="matrix(0.9781 0.2083 -0.2083 0.9781 957.8074 600.2184)" class="st3 st4">V</text>
<text transform="matrix(0.9781 0.2083 -0.2083 0.9781 967.1983 602.2181)" class="st3 st4">a</text>
<text transform="matrix(0.9781 0.2083 -0.2083 0.9781 976.5894 604.2177)" class="st3 st4">s</text>
<text transform="matrix(0.9781 0.2083 -0.2083 0.9781 985.9805 606.2173)" class="st3 st4">u</text>
<text transform="matrix(0.9781 0.2083 -0.2083 0.9781 995.3714 608.217)" class="st3 st4">d</text>
<text transform="matrix(0.9781 0.2083 -0.2083 0.9781 1004.7625 610.2166)" class="st3 st4">e</text>
<text transform="matrix(0.9781 0.2083 -0.2083 0.9781 1014.1536 612.2162)" class="st3 st4">v</text>
<text transform="matrix(0.9781 0.2083 -0.2083 0.9781 1023.5445 614.2159)" class="st3 st4">a</text>
<text transform="matrix(1 0 0 1 -12 -81.2645)" class="st9 st10"> </text>
<path id="SVGID_x5F_00000122695270870086979720000012037187805727062696_x5F_" class="st8" d="M1092.6,700.9L1264,769"/>
<text transform="matrix(0.9293 0.3692 -0.3692 0.9293 1126.453 714.3857)" class="st9 st10"> </text>
<text transform="matrix(0.9293 0.3692 -0.3692 0.9293 1129.5518 715.6172)" class="st3 st4">B</text>
<text transform="matrix(0.9293 0.3692 -0.3692 0.9293 1138.4746 719.1627)" class="st3 st4">r</text>
<text transform="matrix(0.9293 0.3692 -0.3692 0.9293 1147.3979 722.7078)" class="st3 st4">i</text>
<text transform="matrix(0.9293 0.3692 -0.3692 0.9293 1156.3208 726.253)" class="st3 st4">a</text>
<text transform="matrix(0.9293 0.3692 -0.3692 0.9293 1165.2437 729.7984)" class="st3 st4">n</text>
<text transform="matrix(0.9293 0.3692 -0.3692 0.9293 1174.167 733.3436)" class="st3 st4"> </text>
<text transform="matrix(0.9293 0.3692 -0.3692 0.9293 1183.0898 736.889)" class="st3 st4">S</text>
<text transform="matrix(0.9293 0.3692 -0.3692 0.9293 1192.0132 740.4341)" class="st3 st4">u</text>
<text transform="matrix(0.9293 0.3692 -0.3692 0.9293 1200.936 743.9796)" class="st3 st4">t</text>
<text transform="matrix(0.9293 0.3692 -0.3692 0.9293 1209.8594 747.5247)" class="st3 st4">h</text>
<text transform="matrix(0.9293 0.3692 -0.3692 0.9293 1218.7822 751.0701)" class="st3 st4">e</text>
<text transform="matrix(0.9293 0.3692 -0.3692 0.9293 1227.7051 754.6153)" class="st3 st4">r</text>
<text transform="matrix(0.9293 0.3692 -0.3692 0.9293 1236.6284 758.1605)" class="st3 st4">l</text>
<text transform="matrix(0.9293 0.3692 -0.3692 0.9293 1245.5513 761.7059)" class="st3 st4">a</text>
<text transform="matrix(0.9293 0.3692 -0.3692 0.9293 1254.4746 765.251)" class="st3 st4">nd</text>
<text transform="matrix(1 0 0 1 -12 -81.2645)" class="st9 st10"> </text>
<path id="SVGID_x5F_00000052066279507165396910000010182619908908549297_x5F_" class="st8" d="M957.1,700.9l130.9,79.5"/>
<text transform="matrix(0.8547 0.5191 -0.5191 0.8547 982.9539 716.6379)" class="st9 st10"> </text>
<text transform="matrix(0.8547 0.5191 -0.5191 0.8547 985.8035 718.3687)" class="st3 st4">D</text>
<text transform="matrix(0.8547 0.5191 -0.5191 0.8547 994.0105 723.3528)" class="st3 st4">e</text>
<text transform="matrix(0.8547 0.5191 -0.5191 0.8547 1002.217 728.3369)" class="st3 st4">n</text>
<text transform="matrix(0.8547 0.5191 -0.5191 0.8547 1010.4236 733.321)" class="st3 st4">z</text>
<text transform="matrix(0.8547 0.5191 -0.5191 0.8547 1018.6301 738.3052)" class="st3 st4">e</text>
<text transform="matrix(0.8547 0.5191 -0.5191 0.8547 1026.8367 743.2893)" class="st3 st4">l</text>
<text transform="matrix(0.8547 0.5191 -0.5191 0.8547 1035.0432 748.2734)" class="st3 st4"> </text>
<text transform="matrix(0.8547 0.5191 -0.5191 0.8547 1043.2498 753.2576)" class="st3 st4">W</text>
<text transform="matrix(0.8547 0.5191 -0.5191 0.8547 1051.4568 758.2417)" class="st3 st4">a</text>
<text transform="matrix(0.8547 0.5191 -0.5191 0.8547 1059.6633 763.2258)" class="st3 st4">m</text>
<text transform="matrix(0.8547 0.5191 -0.5191 0.8547 1067.8699 768.21)" class="st3 st4">b</text>
<text transform="matrix(0.8547 0.5191 -0.5191 0.8547 1076.0764 773.1941)" class="st3 st4">uru</text>
<text transform="matrix(1 0 0 1 -12 -81.2645)" class="st9 st10"> </text>
<path id="SVGID_x5F_00000101802753580504483340000000325616044085174163_x5F_" class="st8" d="M1024.9,825.8l108.4,94"/>
<text transform="matrix(0.7555 0.6551 -0.6551 0.7555 1046.3101 844.4016)" class="st9 st10"> </text>
<text transform="matrix(0.7555 0.6551 -0.6551 0.7555 1048.8286 846.5857)" class="st3 st4">M</text>
<text transform="matrix(0.7555 0.6551 -0.6551 0.7555 1056.0825 852.8762)" class="st3 st4">a</text>
<text transform="matrix(0.7555 0.6551 -0.6551 0.7555 1063.3364 859.1665)" class="st3 st4">r</text>
<text transform="matrix(0.7555 0.6551 -0.6551 0.7555 1070.5913 865.4568)" class="st3 st4">k</text>
<text transform="matrix(0.7555 0.6551 -0.6551 0.7555 1077.8452 871.7473)" class="st3 st4"> </text>
<text transform="matrix(0.7555 0.6551 -0.6551 0.7555 1085.0991 878.0376)" class="st3 st4">A</text>
<text transform="matrix(0.7555 0.6551 -0.6551 0.7555 1092.353 884.3281)" class="st3 st4">n</text>
<text transform="matrix(0.7555 0.6551 -0.6551 0.7555 1099.6069 890.6184)" class="st3 st4">t</text>
<text transform="matrix(0.7555 0.6551 -0.6551 0.7555 1106.8608 896.9089)" class="st3 st4">h</text>
<text transform="matrix(0.7555 0.6551 -0.6551 0.7555 1114.1147 903.1992)" class="st3 st4">o</text>
<text transform="matrix(0.7555 0.6551 -0.6551 0.7555 1121.3687 909.4897)" class="st3 st4">n</text>
<text transform="matrix(0.7555 0.6551 -0.6551 0.7555 1128.6235 915.78)" class="st3 st4">y</text>
<text transform="matrix(1 0 0 1 -12 -81.2645)" class="st9 st10"> </text>
<path id="SVGID_x5F_00000041996180734750395880000017796807515519587734_x5F_" class="st8" d="M879.9,762.2l63.9,77.6"/>
<text transform="matrix(0.6357 0.772 -0.772 0.6357 892.5211 777.5619)" class="st9 st10"> </text>
<text transform="matrix(0.6357 0.772 -0.772 0.6357 894.6407 780.1361)" class="st3 st4">h</text>
<text transform="matrix(0.6357 0.772 -0.772 0.6357 900.7432 787.5482)" class="st3 st4">o</text>
<text transform="matrix(0.6357 0.772 -0.772 0.6357 906.8467 794.9601)" class="st3 st4">n</text>
<text transform="matrix(0.6357 0.772 -0.772 0.6357 912.9503 802.3722)" class="st3 st4">o</text>
<text transform="matrix(0.6357 0.772 -0.772 0.6357 919.0538 809.7843)" class="st3 st4">r</text>
<text transform="matrix(0.6357 0.772 -0.772 0.6357 925.1573 817.1962)" class="st3 st4"> </text>
<text transform="matrix(0.6357 0.772 -0.772 0.6357 931.2608 824.6083)" class="st3 st4">a</text>
<text transform="matrix(0.6357 0.772 -0.772 0.6357 937.3643 832.0201)" class="st3 st4">sh</text>
<text transform="matrix(1 0 0 1 -12 -81.2645)" class="st9 st10"> </text>
<path id="SVGID_x5F_00000088096634003595523350000000091000049953851052_x5F_" class="st8" d="M904.7,899.8l83.1,144.9"/>
<text transform="matrix(0.4975 0.8675 -0.8675 0.4975 921.1135 928.4545)" class="st9 st10"> </text>
<text transform="matrix(0.4975 0.8675 -0.8675 0.4975 922.7717 931.3465)" class="st3 st4">M</text>
<text transform="matrix(0.4975 0.8675 -0.8675 0.4975 927.5481 939.6756)" class="st3 st4">a</text>
<text transform="matrix(0.4975 0.8675 -0.8675 0.4975 932.3254 948.0047)" class="st3 st4">r</text>
<text transform="matrix(0.4975 0.8675 -0.8675 0.4975 937.1018 956.3337)" class="st3 st4">l</text>
<text transform="matrix(0.4975 0.8675 -0.8675 0.4975 941.8782 964.6628)" class="st3 st4">o</text>
<text transform="matrix(0.4975 0.8675 -0.8675 0.4975 946.6555 972.9919)" class="st3 st4">e</text>
<text transform="matrix(0.4975 0.8675 -0.8675 0.4975 951.4319 981.3209)" class="st3 st4">s</text>
<text transform="matrix(0.4975 0.8675 -0.8675 0.4975 956.2083 989.65)" class="st3 st4"> </text>
<text transform="matrix(0.4975 0.8675 -0.8675 0.4975 960.9856 997.9789)" class="st3 st4">d</text>
<text transform="matrix(0.4975 0.8675 -0.8675 0.4975 965.762 1006.308)" class="st3 st4">e</text>
<text transform="matrix(0.4975 0.8675 -0.8675 0.4975 970.5383 1014.6371)" class="st3 st4"> </text>
<text transform="matrix(0.4975 0.8675 -0.8675 0.4975 975.3157 1022.9661)" class="st3 st4">V</text>
<text transform="matrix(0.4975 0.8675 -0.8675 0.4975 980.092 1031.2952)" class="st3 st4">a</text>
<text transform="matrix(0.4975 0.8675 -0.8675 0.4975 984.8694 1039.6241)" class="st3 st4">lk</text>
<text transform="matrix(1 0 0 1 -12 -81.2645)" class="st9 st10"> </text>
<path id="SVGID_x5F_00000155847478770549892980000008008105376558875571_x5F_" class="st8" d="M764.5,716.7l36.4,99"/>
<text transform="matrix(0.3451 0.9386 -0.9386 0.3451 771.6895 736.2891)" class="st9 st10"> </text>
<text transform="matrix(0.3451 0.9386 -0.9386 0.3451 772.8398 739.4183)" class="st3 st4">F</text>
<text transform="matrix(0.3451 0.9386 -0.9386 0.3451 776.1533 748.43)" class="st3 st4">e</text>
<text transform="matrix(0.3451 0.9386 -0.9386 0.3451 779.4668 757.4417)" class="st3 st4">l</text>
<text transform="matrix(0.3451 0.9386 -0.9386 0.3451 782.7803 766.4534)" class="st3 st4">i</text>
<text transform="matrix(0.3451 0.9386 -0.9386 0.3451 786.0938 775.4651)" class="st3 st4">x</text>
<text transform="matrix(0.3451 0.9386 -0.9386 0.3451 789.4072 784.4769)" class="st3 st4"> </text>
<text transform="matrix(0.3451 0.9386 -0.9386 0.3451 792.7207 793.4886)" class="st3 st4">L</text>
<text transform="matrix(0.3451 0.9386 -0.9386 0.3451 796.0332 802.5004)" class="st3 st4">enz</text>
<text transform="matrix(1 0 0 1 -12 -81.2645)" class="st9 st10"> </text>
<path id="SVGID_x5F_00000111903822769721335810000013297608191870131635_x5F_" class="st8" d="M783.4,983.8l14.5,77.9"/>
<text transform="matrix(0.183 0.9831 -0.9831 0.183 786.2646 999.2214)" class="st9 st10"> </text>
<text transform="matrix(0.183 0.9831 -0.9831 0.183 786.874 1002.4989)" class="st3 st4">J</text>
<text transform="matrix(0.183 0.9831 -0.9831 0.183 788.6308 1011.9384)" class="st3 st4">e</text>
<text transform="matrix(0.183 0.9831 -0.9831 0.183 790.3886 1021.3778)" class="st3 st4">n</text>
<text transform="matrix(0.183 0.9831 -0.9831 0.183 792.1454 1030.8173)" class="st3 st4"> </text>
<text transform="matrix(0.183 0.9831 -0.9831 0.183 793.9023 1040.2566)" class="st3 st4">L</text>
<text transform="matrix(0.183 0.9831 -0.9831 0.183 795.6591 1049.696)" class="st3 st4">iu</text>
<text transform="matrix(1 0 0 1 -12 -81.2645)" class="st9 st10"> </text>
<path id="SVGID_x5F_00000074421699615524359570000007754214527835717787_x5F_" class="st8" d="M700.2,839.8l-0.2,19.9l-1,145.5"/>
<text transform="matrix(-1.005033e-02 0.9999 -0.9999 -1.005033e-02 700.0361 856.1694)" class="st9 st10"> </text>
<text transform="matrix(-6.872633e-03 1 -1 -6.872633e-03 700.0013 859.5031)" class="st3 st4">S</text>
<text transform="matrix(-6.872633e-03 1 -1 -6.872633e-03 699.9349 869.1045)" class="st3 st4">t</text>
<text transform="matrix(-6.872633e-03 1 -1 -6.872633e-03 699.8704 878.7058)" class="st3 st4">e</text>
<text transform="matrix(-6.872633e-03 1 -1 -6.872633e-03 699.804 888.3071)" class="st3 st4">p</text>
<text transform="matrix(-6.872633e-03 1 -1 -6.872633e-03 699.7376 897.9084)" class="st3 st4">h</text>
<text transform="matrix(-6.872633e-03 1 -1 -6.872633e-03 699.6712 907.5098)" class="st3 st4">a</text>
<text transform="matrix(-6.872633e-03 1 -1 -6.872633e-03 699.6048 917.1111)" class="st3 st4">n</text>
<text transform="matrix(-6.872633e-03 1 -1 -6.872633e-03 699.5403 926.7124)" class="st3 st4">i</text>
<text transform="matrix(-6.872633e-03 1 -1 -6.872633e-03 699.4739 936.3138)" class="st3 st4">e</text>
<text transform="matrix(-6.872633e-03 1 -1 -6.872633e-03 699.4075 945.9152)" class="st3 st4"> </text>
<text transform="matrix(-6.872633e-03 1 -1 -6.872633e-03 699.3411 955.5165)" class="st3 st4">D</text>
<text transform="matrix(-6.872633e-03 1 -1 -6.872633e-03 699.2747 965.1178)" class="st3 st4">i</text>
<text transform="matrix(-6.872633e-03 1 -1 -6.872633e-03 699.2103 974.7191)" class="st3 st4">c</text>
<text transform="matrix(-6.872633e-03 1 -1 -6.872633e-03 699.1439 984.3204)" class="st3 st4">k</text>
<text transform="matrix(1 0 0 1 -12 -81.2645)" class="st9 st10"> </text>
<path id="SVGID_x5F_00000003811717533186698460000007238894258365488026_x5F_" class="st8" d="M864.9,496.2l401.5-121.7"/>
<text transform="matrix(0.957 -0.2901 0.2901 0.957 944.2003 472.1986)" class="st9 st10"> </text>
<text transform="matrix(0.957 -0.2901 0.2901 0.957 947.3909 471.2314)" class="st3 st4">R</text>
<text transform="matrix(0.957 -0.2901 0.2901 0.957 956.5797 468.4461)" class="st3 st4">o</text>
<text transform="matrix(0.957 -0.2901 0.2901 0.957 965.7684 465.661)" class="st3 st4">r</text>
<text transform="matrix(0.957 -0.2901 0.2901 0.957 974.9571 462.8757)" class="st3 st4">y</text>
<text transform="matrix(0.957 -0.2901 0.2901 0.957 984.1458 460.0905)" class="st3 st4"> </text>
<text transform="matrix(0.957 -0.2901 0.2901 0.957 993.3345 457.3053)" class="st3 st4">G</text>
<text transform="matrix(0.957 -0.2901 0.2901 0.957 1002.5233 454.5201)" class="st3 st4">i</text>
<text transform="matrix(0.957 -0.2901 0.2901 0.957 1011.712 451.7348)" class="st3 st4">l</text>
<text transform="matrix(0.957 -0.2901 0.2901 0.957 1020.9007 448.9497)" class="st3 st4">l</text>
<text transform="matrix(0.957 -0.2901 0.2901 0.957 1030.0894 446.1644)" class="st3 st4">e</text>
<text transform="matrix(0.957 -0.2901 0.2901 0.957 1039.2781 443.3792)" class="st3 st4">n</text>
<text transform="matrix(0.957 -0.2901 0.2901 0.957 1048.4668 440.594)" class="st3 st4"> </text>
<text transform="matrix(0.957 -0.2901 0.2901 0.957 1057.6555 437.8087)" class="st3 st4">a</text>
<text transform="matrix(0.957 -0.2901 0.2901 0.957 1066.8442 435.0235)" class="st3 st4">n</text>
<text transform="matrix(0.957 -0.2901 0.2901 0.957 1076.033 432.2383)" class="st3 st4">d</text>
<text transform="matrix(0.957 -0.2901 0.2901 0.957 1085.2217 429.4531)" class="st3 st4"> </text>
<text transform="matrix(0.957 -0.2901 0.2901 0.957 1094.4104 426.6678)" class="st3 st4">A</text>
<text transform="matrix(0.957 -0.2901 0.2901 0.957 1103.5991 423.8827)" class="st3 st4">n</text>
<text transform="matrix(0.957 -0.2901 0.2901 0.957 1112.7878 421.0974)" class="st3 st4">n</text>
<text transform="matrix(0.957 -0.2901 0.2901 0.957 1121.9766 418.3121)" class="st3 st4">a</text>
<text transform="matrix(0.957 -0.2901 0.2901 0.957 1131.1653 415.5269)" class="st3 st4"> </text>
<text transform="matrix(0.957 -0.2901 0.2901 0.957 1140.354 412.7417)" class="st3 st4">M</text>
<text transform="matrix(0.957 -0.2901 0.2901 0.957 1149.5427 409.9565)" class="st3 st4">a</text>
<text transform="matrix(0.957 -0.2901 0.2901 0.957 1158.7314 407.1712)" class="st3 st4">d</text>
<text transform="matrix(0.957 -0.2901 0.2901 0.957 1167.9202 404.3861)" class="st3 st4">e</text>
<text transform="matrix(0.957 -0.2901 0.2901 0.957 1177.1089 401.6008)" class="st3 st4">l</text>
<text transform="matrix(0.957 -0.2901 0.2901 0.957 1186.2976 398.8156)" class="st3 st4">e</text>
<text transform="matrix(0.957 -0.2901 0.2901 0.957 1195.4863 396.0304)" class="st3 st4">i</text>
<text transform="matrix(0.957 -0.2901 0.2901 0.957 1204.675 393.2452)" class="st3 st4">n</text>
<text transform="matrix(0.957 -0.2901 0.2901 0.957 1213.8638 390.4599)" class="st3 st4">e</text>
<text transform="matrix(0.957 -0.2901 0.2901 0.957 1223.0525 387.6747)" class="st3 st4"> </text>
<text transform="matrix(0.957 -0.2901 0.2901 0.957 1232.2412 384.8895)" class="st3 st4">R</text>
<text transform="matrix(0.957 -0.2901 0.2901 0.957 1241.4299 382.1042)" class="st3 st4">a</text>
<text transform="matrix(0.957 -0.2901 0.2901 0.957 1250.6187 379.3191)" class="st3 st4">u</text>
<text transform="matrix(0.957 -0.2901 0.2901 0.957 1259.8074 376.5338)" class="st3 st4">pp</text>
<text transform="matrix(1 0 0 1 -12 -81.2645)" class="st9 st10"> </text>
<g>
	<path id="SVGID_x5F_00000142894218948266543310000013378637162895758497_x5F_" class="st8" d="M1956.9,795.3L2720.8,238"/>
	<text transform="matrix(0.8079 -0.5894 0.5894 0.8079 2107.7783 685.2634)" class="st9 st10"> </text>
	<text transform="matrix(0.8079 -0.5894 0.5894 0.8079 2110.4717 683.2986)" class="st3 st4">K</text>
	<text transform="matrix(0.8079 -0.5894 0.5894 0.8079 2118.2285 677.6394)" class="st3 st4">r</text>
	<text transform="matrix(0.8079 -0.5894 0.5894 0.8079 2125.9854 671.9807)" class="st3 st4">i</text>
	<text transform="matrix(0.8079 -0.5894 0.5894 0.8079 2133.7419 666.3215)" class="st3 st4">s</text>
	<text transform="matrix(0.8079 -0.5894 0.5894 0.8079 2141.4985 660.6628)" class="st3 st4">t</text>
	<text transform="matrix(0.8079 -0.5894 0.5894 0.8079 2149.2554 655.0042)" class="st3 st4">i</text>
	<text transform="matrix(0.8079 -0.5894 0.5894 0.8079 2157.0122 649.345)" class="st3 st4">n</text>
	<text transform="matrix(0.8079 -0.5894 0.5894 0.8079 2164.7688 643.6863)" class="st3 st4"> </text>
	<text transform="matrix(0.8079 -0.5894 0.5894 0.8079 2172.5256 638.0271)" class="st3 st4">L</text>
	<text transform="matrix(0.8079 -0.5894 0.5894 0.8079 2180.2822 632.3684)" class="st3 st4">u</text>
	<text transform="matrix(0.8079 -0.5894 0.5894 0.8079 2188.0391 626.7092)" class="st3 st4">c</text>
	<text transform="matrix(0.8079 -0.5894 0.5894 0.8079 2195.7959 621.0505)" class="st3 st4">a</text>
	<text transform="matrix(0.8079 -0.5894 0.5894 0.8079 2203.5525 615.3918)" class="st3 st4">s</text>
	<text transform="matrix(0.8079 -0.5894 0.5894 0.8079 2211.3093 609.7327)" class="st3 st4"> </text>
	<text transform="matrix(0.8079 -0.5894 0.5894 0.8079 2219.0662 604.074)" class="st3 st4">a</text>
	<text transform="matrix(0.8079 -0.5894 0.5894 0.8079 2226.8228 598.4148)" class="st3 st4">n</text>
	<text transform="matrix(0.8079 -0.5894 0.5894 0.8079 2234.5796 592.7561)" class="st3 st4">d</text>
	<text transform="matrix(0.8079 -0.5894 0.5894 0.8079 2242.3362 587.0974)" class="st3 st4"> </text>
	<text transform="matrix(0.8079 -0.5894 0.5894 0.8079 2250.093 581.4382)" class="st3 st4">J</text>
	<text transform="matrix(0.8079 -0.5894 0.5894 0.8079 2257.8496 575.7795)" class="st3 st4">o</text>
	<text transform="matrix(0.8079 -0.5894 0.5894 0.8079 2265.6064 570.1204)" class="st3 st4">e</text>
	<text transform="matrix(0.8079 -0.5894 0.5894 0.8079 2273.3633 564.4617)" class="st3 st4"> </text>
	<text transform="matrix(0.8079 -0.5894 0.5894 0.8079 2281.1199 558.8025)" class="st3 st4">M</text>
	<text transform="matrix(0.8079 -0.5894 0.5894 0.8079 2288.8767 553.1438)" class="st3 st4">c</text>
	<text transform="matrix(0.8079 -0.5894 0.5894 0.8079 2296.6333 547.4851)" class="st3 st4">K</text>
	<text transform="matrix(0.8079 -0.5894 0.5894 0.8079 2304.3901 541.8259)" class="st3 st4">a</text>
	<text transform="matrix(0.8079 -0.5894 0.5894 0.8079 2312.147 536.1672)" class="st3 st4">y</text>
	<text transform="matrix(0.8079 -0.5894 0.5894 0.8079 2319.9038 530.5081)" class="st9 st10"> </text>
	<text transform="matrix(1 0 0 1 0 -81.2645)" class="st9 st10"> </text>
	<path id="SVGID_x5F_00000034809451590846229940000014833242535989301944_x5F_" class="st8" d="M1920,734.5l874.5-435.8"/>
	<text transform="matrix(0.895 -0.446 0.446 0.895 2092.7224 648.4608)" class="st9 st10"> </text>
	<text transform="matrix(0.895 -0.446 0.446 0.895 2095.7065 646.9737)" class="st3 st4">H</text>
	<text transform="matrix(0.895 -0.446 0.446 0.895 2104.3 642.691)" class="st3 st4">a</text>
	<text transform="matrix(0.895 -0.446 0.446 0.895 2112.8933 638.4085)" class="st3 st4">k</text>
	<text transform="matrix(0.895 -0.446 0.446 0.895 2121.4871 634.126)" class="st3 st4">e</text>
	<text transform="matrix(0.895 -0.446 0.446 0.895 2130.0806 629.8436)" class="st3 st4">e</text>
	<text transform="matrix(0.895 -0.446 0.446 0.895 2138.6741 625.5609)" class="st3 st4">m</text>
	<text transform="matrix(0.895 -0.446 0.446 0.895 2147.2678 621.2784)" class="st3 st4"> </text>
	<text transform="matrix(0.895 -0.446 0.446 0.895 2155.8613 616.9959)" class="st3 st4">A</text>
	<text transform="matrix(0.895 -0.446 0.446 0.895 2164.4548 612.7132)" class="st3 st4">d</text>
	<text transform="matrix(0.895 -0.446 0.446 0.895 2173.0486 608.4307)" class="st3 st4">a</text>
	<text transform="matrix(0.895 -0.446 0.446 0.895 2181.6421 604.1483)" class="st3 st4">m</text>
	<text transform="matrix(0.895 -0.446 0.446 0.895 2190.2358 599.8655)" class="st9 st10"> </text>
	<text transform="matrix(1 0 0 1 0 -81.2645)" class="st9 st10"> </text>
	<path id="SVGID_x5F_00000011003186663660070620000013247723176054501545_x5F_" class="st8" d="M1878.9,598.9l914.9-116.1"/>
	<text transform="matrix(0.992 -0.1259 0.1259 0.992 2059.6018 576.0047)" class="st9 st10"> </text>
	<text transform="matrix(0.992 -0.1259 0.1259 0.992 2062.9092 575.5849)" class="st3 st4">E</text>
	<text transform="matrix(0.992 -0.1259 0.1259 0.992 2072.4343 574.3762)" class="st3 st4">v</text>
	<text transform="matrix(0.992 -0.1259 0.1259 0.992 2081.9595 573.1675)" class="st3 st4">e</text>
	<text transform="matrix(0.992 -0.1259 0.1259 0.992 2091.4849 571.9587)" class="st3 st4">r</text>
	<text transform="matrix(0.992 -0.1259 0.1259 0.992 2101.01 570.75)" class="st3 st4">e</text>
	<text transform="matrix(0.992 -0.1259 0.1259 0.992 2110.5352 569.5413)" class="st3 st4">s</text>
	<text transform="matrix(0.992 -0.1259 0.1259 0.992 2120.0603 568.3325)" class="st3 st4">t</text>
	<text transform="matrix(0.992 -0.1259 0.1259 0.992 2129.5854 567.1238)" class="st3 st4"> </text>
	<text transform="matrix(0.992 -0.1259 0.1259 0.992 2139.1106 565.915)" class="st3 st4">P</text>
	<text transform="matrix(0.992 -0.1259 0.1259 0.992 2148.6357 564.7063)" class="st3 st4">i</text>
	<text transform="matrix(0.992 -0.1259 0.1259 0.992 2158.1609 563.4976)" class="st3 st4">p</text>
	<text transform="matrix(0.992 -0.1259 0.1259 0.992 2167.686 562.2888)" class="st3 st4">k</text>
	<text transform="matrix(0.992 -0.1259 0.1259 0.992 2177.2114 561.0801)" class="st3 st4">i</text>
	<text transform="matrix(0.992 -0.1259 0.1259 0.992 2186.7366 559.8713)" class="st3 st4">n</text>
	<text transform="matrix(0.992 -0.1259 0.1259 0.992 2196.2617 558.6627)" class="st3 st4"> </text>
	<text transform="matrix(0.992 -0.1259 0.1259 0.992 2205.7869 557.4539)" class="st9 st10"> </text>
	<text transform="matrix(1 0 0 1 0 -81.2645)" class="st9 st10"> </text>
	<path id="SVGID_x5F_00000138532126448948379100000008736952841696669870_x5F_" class="st8" d="M1875.9,527.9l999.9,41.9"/>
	<text transform="matrix(0.9991 4.186748e-02 -4.186748e-02 0.9991 2073.3899 536.2111)" class="st9 st10"> </text>
	<text transform="matrix(0.9991 4.186747e-02 -4.186747e-02 0.9991 2076.7209 536.3506)" class="st3 st4">A</text>
	<text transform="matrix(0.9991 4.186747e-02 -4.186747e-02 0.9991 2086.3142 536.7526)" class="st3 st4">l</text>
	<text transform="matrix(0.9991 4.186747e-02 -4.186747e-02 0.9991 2095.9072 537.1546)" class="st3 st4">l</text>
	<text transform="matrix(0.9991 4.186747e-02 -4.186747e-02 0.9991 2105.5005 537.5566)" class="st3 st4">i</text>
	<text transform="matrix(0.9991 4.186747e-02 -4.186747e-02 0.9991 2115.0935 537.9586)" class="st3 st4">s</text>
	<text transform="matrix(0.9991 4.186747e-02 -4.186747e-02 0.9991 2124.6868 538.3606)" class="st3 st4">o</text>
	<text transform="matrix(0.9991 4.186747e-02 -4.186747e-02 0.9991 2134.2798 538.7626)" class="st3 st4">n</text>
	<text transform="matrix(0.9991 4.186747e-02 -4.186747e-02 0.9991 2143.873 539.1646)" class="st3 st4"> </text>
	<text transform="matrix(0.9991 4.186747e-02 -4.186747e-02 0.9991 2153.4661 539.5666)" class="st3 st4">P</text>
	<text transform="matrix(0.9991 4.186747e-02 -4.186747e-02 0.9991 2163.0593 539.9686)" class="st3 st4">a</text>
	<text transform="matrix(0.9991 4.186747e-02 -4.186747e-02 0.9991 2172.6523 540.3705)" class="st3 st4">r</text>
	<text transform="matrix(0.9991 4.186747e-02 -4.186747e-02 0.9991 2182.2456 540.7725)" class="st3 st4">r</text>
	<text transform="matrix(0.9991 4.186747e-02 -4.186747e-02 0.9991 2191.8389 541.1746)" class="st3 st4">i</text>
	<text transform="matrix(0.9991 4.186747e-02 -4.186747e-02 0.9991 2201.4319 541.5765)" class="st3 st4">s</text>
	<text transform="matrix(0.9991 4.186747e-02 -4.186747e-02 0.9991 2211.0249 541.9785)" class="st3 st4">h</text>
	<text transform="matrix(0.9991 4.186748e-02 -4.186748e-02 0.9991 2220.6182 542.3806)" class="st9 st10"> </text>
	<text transform="matrix(1 0 0 1 0 -81.2645)" class="st9 st10"> </text>
	<path id="SVGID_x5F_00000072266199334422797670000017032027212447860902_x5F_" class="st8" d="M1884.8,457.4l746.1,159"/>
	<text transform="matrix(0.978 0.2084 -0.2084 0.978 2032.1619 488.8393)" class="st9 st10"> </text>
	<text transform="matrix(0.978 0.2084 -0.2084 0.978 2035.4227 489.5343)" class="st3 st4">R</text>
	<text transform="matrix(0.978 0.2084 -0.2084 0.978 2044.8134 491.5355)" class="st3 st4">o</text>
	<text transform="matrix(0.978 0.2084 -0.2084 0.978 2054.2041 493.5367)" class="st3 st4">o</text>
	<text transform="matrix(0.978 0.2084 -0.2084 0.978 2063.5952 495.5379)" class="st3 st4">p</text>
	<text transform="matrix(0.978 0.2084 -0.2084 0.978 2072.9858 497.5392)" class="st3 st4">a</text>
	<text transform="matrix(0.978 0.2084 -0.2084 0.978 2082.3765 499.5404)" class="st3 st4"> </text>
	<text transform="matrix(0.978 0.2084 -0.2084 0.978 2091.7671 501.5416)" class="st3 st4">V</text>
	<text transform="matrix(0.978 0.2084 -0.2084 0.978 2101.1577 503.5428)" class="st3 st4">a</text>
	<text transform="matrix(0.978 0.2084 -0.2084 0.978 2110.5488 505.544)" class="st3 st4">s</text>
	<text transform="matrix(0.978 0.2084 -0.2084 0.978 2119.939 507.5454)" class="st3 st4">u</text>
	<text transform="matrix(0.978 0.2084 -0.2084 0.978 2129.3296 509.5466)" class="st3 st4">d</text>
	<text transform="matrix(0.978 0.2084 -0.2084 0.978 2138.7207 511.5478)" class="st3 st4">e</text>
	<text transform="matrix(0.978 0.2084 -0.2084 0.978 2148.1113 513.549)" class="st3 st4">v</text>
	<text transform="matrix(0.978 0.2084 -0.2084 0.978 2157.502 515.5502)" class="st3 st4">a</text>
	<text transform="matrix(0.978 0.2084 -0.2084 0.978 2166.8926 517.5515)" class="st3 st4">n</text>
	<text transform="matrix(0.978 0.2084 -0.2084 0.978 2176.2834 519.5527)" class="st9 st10"> </text>
	<text transform="matrix(1 0 0 1 0 -81.2645)" class="st9 st10"> </text>
	<path id="SVGID_x5F_00000183248114098616600690000017203205651034978705_x5F_" class="st8" d="M1905.4,389.4L2861.5,769"/>
	<text transform="matrix(0.9294 0.369 -0.369 0.9294 2094.2393 464.4103)" class="st9 st10"> </text>
	<text transform="matrix(0.9294 0.369 -0.369 0.9294 2097.3376 465.6404)" class="st3 st4">B</text>
	<text transform="matrix(0.9294 0.369 -0.369 0.9294 2106.262 469.1836)" class="st3 st4">r</text>
	<text transform="matrix(0.9294 0.369 -0.369 0.9294 2115.1858 472.7265)" class="st3 st4">i</text>
	<text transform="matrix(0.9294 0.369 -0.369 0.9294 2124.1096 476.2695)" class="st3 st4">a</text>
	<text transform="matrix(0.9294 0.369 -0.369 0.9294 2133.0334 479.8127)" class="st3 st4">n</text>
	<text transform="matrix(0.9294 0.369 -0.369 0.9294 2141.9578 483.3557)" class="st3 st4"> </text>
	<text transform="matrix(0.9294 0.369 -0.369 0.9294 2150.8816 486.8989)" class="st3 st4">S</text>
	<text transform="matrix(0.9294 0.369 -0.369 0.9294 2159.8054 490.4419)" class="st3 st4">u</text>
	<text transform="matrix(0.9294 0.369 -0.369 0.9294 2168.7292 493.9848)" class="st3 st4">t</text>
	<text transform="matrix(0.9294 0.369 -0.369 0.9294 2177.6536 497.528)" class="st3 st4">h</text>
	<text transform="matrix(0.9294 0.369 -0.369 0.9294 2186.5774 501.071)" class="st3 st4">e</text>
	<text transform="matrix(0.9294 0.369 -0.369 0.9294 2195.5012 504.6142)" class="st3 st4">r</text>
	<text transform="matrix(0.9294 0.369 -0.369 0.9294 2204.425 508.1572)" class="st3 st4">l</text>
	<text transform="matrix(0.9294 0.369 -0.369 0.9294 2213.3489 511.7004)" class="st3 st4">a</text>
	<text transform="matrix(0.9294 0.369 -0.369 0.9294 2222.2732 515.2433)" class="st3 st4">n</text>
	<text transform="matrix(0.9294 0.369 -0.369 0.9294 2231.197 518.7863)" class="st3 st4">d</text>
	<text transform="matrix(0.9294 0.369 -0.369 0.9294 2240.1211 522.3298)" class="st9 st10"> </text>
	<text transform="matrix(1 0 0 1 0 -81.2645)" class="st9 st10"> </text>
	<path id="SVGID_x5F_00000123400300572745921370000002413716946049723800_x5F_" class="st8" d="M1937.1,325.7l748.4,454.7"/>
	<text transform="matrix(0.8546 0.5192 -0.5192 0.8546 2084.9165 415.5431)" class="st9 st10"> </text>
	<text transform="matrix(0.8546 0.5192 -0.5192 0.8546 2087.7656 417.2743)" class="st3 st4">D</text>
	<text transform="matrix(0.8546 0.5192 -0.5192 0.8546 2095.9717 422.2599)" class="st3 st4">e</text>
	<text transform="matrix(0.8546 0.5192 -0.5192 0.8546 2104.1772 427.2453)" class="st3 st4">n</text>
	<text transform="matrix(0.8546 0.5192 -0.5192 0.8546 2112.3828 432.2309)" class="st3 st4">z</text>
	<text transform="matrix(0.8546 0.5192 -0.5192 0.8546 2120.5889 437.2165)" class="st3 st4">e</text>
	<text transform="matrix(0.8546 0.5192 -0.5192 0.8546 2128.7944 442.2018)" class="st3 st4">l</text>
	<text transform="matrix(0.8546 0.5192 -0.5192 0.8546 2137.0005 447.1874)" class="st3 st4"> </text>
	<text transform="matrix(0.8546 0.5192 -0.5192 0.8546 2145.2061 452.173)" class="st3 st4">W</text>
	<text transform="matrix(0.8546 0.5192 -0.5192 0.8546 2153.4116 457.1586)" class="st3 st4">a</text>
	<text transform="matrix(0.8546 0.5192 -0.5192 0.8546 2161.6177 462.144)" class="st3 st4">m</text>
	<text transform="matrix(0.8546 0.5192 -0.5192 0.8546 2169.8232 467.1295)" class="st3 st4">b</text>
	<text transform="matrix(0.8546 0.5192 -0.5192 0.8546 2178.0293 472.1151)" class="st3 st4">u</text>
	<text transform="matrix(0.8546 0.5192 -0.5192 0.8546 2186.2349 477.1005)" class="st3 st4">r</text>
	<text transform="matrix(0.8546 0.5192 -0.5192 0.8546 2194.4409 482.0861)" class="st3 st4">u</text>
	<text transform="matrix(0.8546 0.5192 -0.5192 0.8546 2202.6465 487.0717)" class="st9 st10"> </text>
	<text transform="matrix(1 0 0 1 0 -81.2645)" class="st9 st10"> </text>
	<path id="SVGID_x5F_00000092447196967547365500000005862777087834059416_x5F_" class="st8" d="M1979,268.3l751.8,651.5"/>
	<text transform="matrix(0.7557 0.6549 -0.6549 0.7557 2127.4875 397.0132)" class="st9 st10"> </text>
	<text transform="matrix(0.7557 0.6549 -0.6549 0.7557 2130.0081 399.1968)" class="st3 st4">M</text>
	<text transform="matrix(0.7557 0.6549 -0.6549 0.7557 2137.2639 405.4847)" class="st3 st4">a</text>
	<text transform="matrix(0.7557 0.6549 -0.6549 0.7557 2144.5198 411.7728)" class="st3 st4">r</text>
	<text transform="matrix(0.7557 0.6549 -0.6549 0.7557 2151.7756 418.0609)" class="st3 st4">k</text>
	<text transform="matrix(0.7557 0.6549 -0.6549 0.7557 2159.0325 424.3489)" class="st3 st4"> </text>
	<text transform="matrix(0.7557 0.6549 -0.6549 0.7557 2166.2883 430.6368)" class="st3 st4">A</text>
	<text transform="matrix(0.7557 0.6549 -0.6549 0.7557 2173.5442 436.9249)" class="st3 st4">n</text>
	<text transform="matrix(0.7557 0.6549 -0.6549 0.7557 2180.8 443.213)" class="st3 st4">t</text>
	<text transform="matrix(0.7557 0.6549 -0.6549 0.7557 2188.0569 449.501)" class="st3 st4">h</text>
	<text transform="matrix(0.7557 0.6549 -0.6549 0.7557 2195.3127 455.7889)" class="st3 st4">o</text>
	<text transform="matrix(0.7557 0.6549 -0.6549 0.7557 2202.5686 462.077)" class="st3 st4">n</text>
	<text transform="matrix(0.7557 0.6549 -0.6549 0.7557 2209.8245 468.3651)" class="st3 st4">y</text>
	<text transform="matrix(0.7557 0.6549 -0.6549 0.7557 2217.0803 474.6529)" class="st3 st4"> </text>
	<text transform="matrix(0.7557 0.6549 -0.6549 0.7557 2224.3362 480.941)" class="st9 st10"> </text>
	<text transform="matrix(1 0 0 1 0 -81.2645)" class="st9 st10"> </text>
	<path id="SVGID_x5F_00000104664459075808295730000000572709256099134103_x5F_" class="st8" d="M2029.9,218.7l511.3,621.2"/>
	<text transform="matrix(0.6355 0.7721 -0.7721 0.6355 2130.8862 341.4287)" class="st9 st10"> </text>
	<text transform="matrix(0.6355 0.7721 -0.7721 0.6355 2133.0054 344.0029)" class="st3 st4">h</text>
	<text transform="matrix(0.6355 0.7721 -0.7721 0.6355 2139.1079 351.4162)" class="st3 st4">o</text>
	<text transform="matrix(0.6355 0.7721 -0.7721 0.6355 2145.2095 358.8296)" class="st3 st4">n</text>
	<text transform="matrix(0.6355 0.7721 -0.7721 0.6355 2151.311 366.2431)" class="st3 st4">o</text>
	<text transform="matrix(0.6355 0.7721 -0.7721 0.6355 2157.4126 373.6565)" class="st3 st4">r</text>
	<text transform="matrix(0.6355 0.7721 -0.7721 0.6355 2163.5151 381.0698)" class="st3 st4"> </text>
	<text transform="matrix(0.6355 0.7721 -0.7721 0.6355 2169.6167 388.4831)" class="st3 st4">a</text>
	<text transform="matrix(0.6355 0.7721 -0.7721 0.6355 2175.7183 395.8965)" class="st3 st4">s</text>
	<text transform="matrix(0.6355 0.7721 -0.7721 0.6355 2181.8198 403.3098)" class="st3 st4">h</text>
	<text transform="matrix(0.6355 0.7721 -0.7721 0.6355 2187.9214 410.7231)" class="st9 st10"> </text>
	<text transform="matrix(1 0 0 1 0 -81.2645)" class="st9 st10"> </text>
	<path id="SVGID_x5F_00000065050036247884918620000004617892719630025648_x5F_" class="st8" d="M2088.4,178.2l496.8,866.4"/>
	<text transform="matrix(0.4974 0.8675 -0.8675 0.4974 2186.5227 349.3582)" class="st9 st10"> </text>
	<text transform="matrix(0.4974 0.8675 -0.8675 0.4974 2188.1812 352.2506)" class="st3 st4">M</text>
	<text transform="matrix(0.4974 0.8675 -0.8675 0.4974 2192.9575 360.58)" class="st3 st4">a</text>
	<text transform="matrix(0.4974 0.8675 -0.8675 0.4974 2197.7329 368.9093)" class="st3 st4">r</text>
	<text transform="matrix(0.4974 0.8675 -0.8675 0.4974 2202.5093 377.2386)" class="st3 st4">l</text>
	<text transform="matrix(0.4974 0.8675 -0.8675 0.4974 2207.2856 385.5682)" class="st3 st4">o</text>
	<text transform="matrix(0.4974 0.8675 -0.8675 0.4974 2212.062 393.8976)" class="st3 st4">e</text>
	<text transform="matrix(0.4974 0.8675 -0.8675 0.4974 2216.8374 402.2269)" class="st3 st4">s</text>
	<text transform="matrix(0.4974 0.8675 -0.8675 0.4974 2221.6138 410.5563)" class="st3 st4"> </text>
	<text transform="matrix(0.4974 0.8675 -0.8675 0.4974 2226.3901 418.8856)" class="st3 st4">d</text>
	<text transform="matrix(0.4974 0.8675 -0.8675 0.4974 2231.1665 427.215)" class="st3 st4">e</text>
	<text transform="matrix(0.4974 0.8675 -0.8675 0.4974 2235.9419 435.5443)" class="st3 st4"> </text>
	<text transform="matrix(0.4974 0.8675 -0.8675 0.4974 2240.7183 443.8739)" class="st3 st4">V</text>
	<text transform="matrix(0.4974 0.8675 -0.8675 0.4974 2245.4946 452.2032)" class="st3 st4">a</text>
	<text transform="matrix(0.4974 0.8675 -0.8675 0.4974 2250.271 460.5326)" class="st3 st4">l</text>
	<text transform="matrix(0.4974 0.8675 -0.8675 0.4974 2255.0464 468.8619)" class="st3 st4">k</text>
	<text transform="matrix(0.4974 0.8675 -0.8675 0.4974 2259.8235 477.1913)" class="st9 st10"> </text>
	<text transform="matrix(1 0 0 1 0 -81.2645)" class="st9 st10"> </text>
	<path id="SVGID_x5F_00000147913544275042479200000016736826386115240078_x5F_" class="st8" d="M2152.8,148.2l245.6,667.5"/>
	<text transform="matrix(0.3453 0.9385 -0.9385 0.3453 2201.3088 280.0732)" class="st9 st10"> </text>
	<text transform="matrix(0.3453 0.9385 -0.9385 0.3453 2202.4595 283.2022)" class="st3 st4">F</text>
	<text transform="matrix(0.3453 0.9385 -0.9385 0.3453 2205.7749 292.2132)" class="st3 st4">e</text>
	<text transform="matrix(0.3453 0.9385 -0.9385 0.3453 2209.0913 301.2242)" class="st3 st4">l</text>
	<text transform="matrix(0.3453 0.9385 -0.9385 0.3453 2212.4067 310.2352)" class="st3 st4">i</text>
	<text transform="matrix(0.3453 0.9385 -0.9385 0.3453 2215.7222 319.246)" class="st3 st4">x</text>
	<text transform="matrix(0.3453 0.9385 -0.9385 0.3453 2219.0376 328.257)" class="st3 st4"> </text>
	<text transform="matrix(0.3453 0.9385 -0.9385 0.3453 2222.353 337.268)" class="st3 st4">L</text>
	<text transform="matrix(0.3453 0.9385 -0.9385 0.3453 2225.6685 346.279)" class="st3 st4">e</text>
	<text transform="matrix(0.3453 0.9385 -0.9385 0.3453 2228.9839 355.29)" class="st3 st4">n</text>
	<text transform="matrix(0.3453 0.9385 -0.9385 0.3453 2232.2993 364.301)" class="st3 st4">z</text>
	<text transform="matrix(0.3453 0.9385 -0.9385 0.3453 2235.6145 373.3118)" class="st9 st10"> </text>
	<text transform="matrix(1 0 0 1 0 -81.2645)" class="st9 st10"> </text>
	<path id="SVGID_x5F_00000024696227135810045360000016396287259899592884_x5F_" class="st8" d="M2221.3,129.3l174.1,932.3"/>
	<text transform="matrix(0.1836 0.983 -0.983 0.1836 2255.6863 313.474)" class="st9 st10"> </text>
	<text transform="matrix(0.1836 0.983 -0.983 0.1836 2256.2996 316.7513)" class="st3 st4">J</text>
	<text transform="matrix(0.1836 0.983 -0.983 0.1836 2258.0613 326.1897)" class="st3 st4">e</text>
	<text transform="matrix(0.1836 0.983 -0.983 0.1836 2259.823 335.6281)" class="st3 st4">n</text>
	<text transform="matrix(0.1836 0.983 -0.983 0.1836 2261.5867 345.0665)" class="st3 st4"> </text>
	<text transform="matrix(0.1836 0.983 -0.983 0.1836 2263.3484 354.5049)" class="st3 st4">L</text>
	<text transform="matrix(0.1836 0.983 -0.983 0.1836 2265.1121 363.9434)" class="st3 st4">i</text>
	<text transform="matrix(0.1836 0.983 -0.983 0.1836 2266.8738 373.3818)" class="st3 st4">u</text>
	<text transform="matrix(0.1836 0.983 -0.983 0.1836 2268.6375 382.8202)" class="st9 st10"> </text>
	<text transform="matrix(1 0 0 1 0 -81.2645)" class="st9 st10"> </text>
	<path id="SVGID_x5F_00000109031491298690521170000013443782801627705784_x5F_" class="st8" d="M2302.6,121.4l-6.2,883.8"/>
	<text transform="matrix(-7.014975e-03 1 -1 -7.014975e-03 2301.3752 295.9947)" class="st9 st10"> </text>
	<text transform="matrix(-7.014975e-03 1 -1 -7.014975e-03 2301.3518 299.3286)" class="st3 st4">S</text>
	<text transform="matrix(-7.014975e-03 1 -1 -7.014975e-03 2301.2854 308.93)" class="st3 st4">t</text>
	<text transform="matrix(-7.014975e-03 1 -1 -7.014975e-03 2301.217 318.5313)" class="st3 st4">e</text>
	<text transform="matrix(-7.014975e-03 1 -1 -7.014975e-03 2301.1506 328.1325)" class="st3 st4">p</text>
	<text transform="matrix(-7.014975e-03 1 -1 -7.014975e-03 2301.0823 337.7339)" class="st3 st4">h</text>
	<text transform="matrix(-7.014975e-03 1 -1 -7.014975e-03 2301.0159 347.3352)" class="st3 st4">a</text>
	<text transform="matrix(-7.014975e-03 1 -1 -7.014975e-03 2300.9475 356.9366)" class="st3 st4">n</text>
	<text transform="matrix(-7.014975e-03 1 -1 -7.014975e-03 2300.8811 366.5379)" class="st3 st4">i</text>
	<text transform="matrix(-7.014975e-03 1 -1 -7.014975e-03 2300.8127 376.1393)" class="st3 st4">e</text>
	<text transform="matrix(-7.014975e-03 1 -1 -7.014975e-03 2300.7463 385.7406)" class="st3 st4"> </text>
	<text transform="matrix(-7.014975e-03 1 -1 -7.014975e-03 2300.678 395.3418)" class="st3 st4">D</text>
	<text transform="matrix(-7.014975e-03 1 -1 -7.014975e-03 2300.6116 404.9432)" class="st3 st4">i</text>
	<text transform="matrix(-7.014975e-03 1 -1 -7.014975e-03 2300.5432 414.5445)" class="st3 st4">c</text>
	<text transform="matrix(-7.014975e-03 1 -1 -7.014975e-03 2300.4768 424.1458)" class="st3 st4">k</text>
	<text transform="matrix(-7.014975e-03 1 -1 -7.014975e-03 2300.4084 433.7472)" class="st9 st10"> </text>
	<text transform="matrix(1 0 0 1 0 -81.2645)" class="st9 st10"> </text>
	<path id="SVGID_x5F_00000009585580799483229530000013979842417510664614_x5F_" class="st8" d="M1893.7,668.5l970.1-294"/>
	<text transform="matrix(0.957 -0.29 0.29 0.957 2085.3044 610.4677)" class="st9 st10"> </text>
	<text transform="matrix(0.957 -0.29 0.29 0.957 2088.4951 609.5006)" class="st3 st4">R</text>
	<text transform="matrix(0.957 -0.29 0.29 0.957 2097.6841 606.7159)" class="st3 st4">o</text>
	<text transform="matrix(0.957 -0.29 0.29 0.957 2106.873 603.931)" class="st3 st4">r</text>
	<text transform="matrix(0.957 -0.29 0.29 0.957 2116.0618 601.1464)" class="st3 st4">y</text>
	<text transform="matrix(0.957 -0.29 0.29 0.957 2125.2507 598.3615)" class="st3 st4"> </text>
	<text transform="matrix(0.957 -0.29 0.29 0.957 2134.4395 595.5768)" class="st3 st4">G</text>
	<text transform="matrix(0.957 -0.29 0.29 0.957 2143.6284 592.7919)" class="st3 st4">i</text>
	<text transform="matrix(0.957 -0.29 0.29 0.957 2152.8171 590.0072)" class="st3 st4">l</text>
	<text transform="matrix(0.957 -0.29 0.29 0.957 2162.0061 587.2223)" class="st3 st4">l</text>
	<text transform="matrix(0.957 -0.29 0.29 0.957 2171.1948 584.4376)" class="st3 st4">e</text>
	<text transform="matrix(0.957 -0.29 0.29 0.957 2180.3838 581.6527)" class="st3 st4">n</text>
	<text transform="matrix(0.957 -0.29 0.29 0.957 2189.5725 578.868)" class="st3 st4"> </text>
	<text transform="matrix(0.957 -0.29 0.29 0.957 2198.7615 576.0831)" class="st3 st4">a</text>
	<text transform="matrix(0.957 -0.29 0.29 0.957 2207.9502 573.2985)" class="st3 st4">n</text>
	<text transform="matrix(0.957 -0.29 0.29 0.957 2217.1392 570.5137)" class="st3 st4">d</text>
	<text transform="matrix(0.957 -0.29 0.29 0.957 2226.3281 567.7289)" class="st3 st4"> </text>
	<text transform="matrix(0.957 -0.29 0.29 0.957 2235.5168 564.9441)" class="st3 st4">A</text>
	<text transform="matrix(0.957 -0.29 0.29 0.957 2244.7056 562.1593)" class="st3 st4">n</text>
	<text transform="matrix(0.957 -0.29 0.29 0.957 2253.8945 559.3745)" class="st3 st4">n</text>
	<text transform="matrix(0.957 -0.29 0.29 0.957 2263.0835 556.5897)" class="st3 st4">a</text>
	<text transform="matrix(0.957 -0.29 0.29 0.957 2272.2722 553.8049)" class="st3 st4"> </text>
	<text transform="matrix(0.957 -0.29 0.29 0.957 2281.4612 551.0201)" class="st3 st4">M</text>
	<text transform="matrix(0.957 -0.29 0.29 0.957 2290.6499 548.2354)" class="st3 st4">a</text>
	<text transform="matrix(0.957 -0.29 0.29 0.957 2299.8389 545.4506)" class="st3 st4">d</text>
	<text transform="matrix(0.957 -0.29 0.29 0.957 2309.0276 542.6658)" class="st3 st4">e</text>
	<text transform="matrix(0.957 -0.29 0.29 0.957 2318.2166 539.881)" class="st3 st4">l</text>
	<text transform="matrix(0.957 -0.29 0.29 0.957 2327.4053 537.0962)" class="st3 st4">e</text>
	<text transform="matrix(0.957 -0.29 0.29 0.957 2336.5942 534.3114)" class="st3 st4">i</text>
	<text transform="matrix(0.957 -0.29 0.29 0.957 2345.783 531.5266)" class="st3 st4">n</text>
	<text transform="matrix(0.957 -0.29 0.29 0.957 2354.9719 528.7418)" class="st3 st4">e</text>
	<text transform="matrix(0.957 -0.29 0.29 0.957 2364.1606 525.957)" class="st3 st4"> </text>
	<text transform="matrix(0.957 -0.29 0.29 0.957 2373.3496 523.1724)" class="st3 st4">R</text>
	<text transform="matrix(0.957 -0.29 0.29 0.957 2382.5383 520.3876)" class="st3 st4">a</text>
	<text transform="matrix(0.957 -0.29 0.29 0.957 2391.7273 517.6028)" class="st3 st4">u</text>
	<text transform="matrix(0.957 -0.29 0.29 0.957 2400.916 514.818)" class="st3 st4">p</text>
	<text transform="matrix(0.957 -0.29 0.29 0.957 2410.105 512.0332)" class="st3 st4">a</text>
	<text transform="matrix(0.957 -0.29 0.29 0.957 2419.2937 509.2484)" class="st3 st4">c</text>
	<text transform="matrix(0.957 -0.29 0.29 0.957 2428.4827 506.4636)" class="st3 st4">h</text>
	<text transform="matrix(0.957 -0.29 0.29 0.957 2437.6711 503.6789)" class="st9 st10"> </text>
	<text transform="matrix(1 0 0 1 0 -81.2645)" class="st9 st10"> </text>
</g>
</svg>
