<?xml version="1.0" encoding="utf-8"?>
<!-- Generator: Adobe Illustrator 27.1.1, SVG Export Plug-In . SVG Version: 6.00 Build 0)  -->
<svg version="1.1" id="Layer_1" xmlns="http://www.w3.org/2000/svg" xmlns:xlink="http://www.w3.org/1999/xlink" x="0px" y="0px"
	 viewBox="0 0 1405 1265" style="enable-background:new 0 0 1405 1265;" xml:space="preserve">
<style type="text/css">
	.st0{clip-path:url(#SVGID_00000073688715206003584230000016484065739491639961_);}
	.st1{fill:none;stroke:#FFFFFF;stroke-miterlimit:10;stroke-opacity:0.4;}
	.st2{fill:none;stroke:#FFFFFF;stroke-width:2;stroke-dasharray:2,2;}
	.st3{font-family:'Courier-Oblique';}
	.st4{font-size:20px;}
	.st5{font-family:'Courier';}
	.st6{font-size:16px;}
	.st7{fill:none;}
</style>
<g>
	<defs>
		<rect id="SVGID_1_" x="80" width="1265" height="1265"/>
	</defs>
	<clipPath id="SVGID_00000010290351679661861280000007277935279088753559_">
		<use xlink:href="#SVGID_1_"  style="overflow:visible;"/>
	</clipPath>
	<g style="clip-path:url(#SVGID_00000010290351679661861280000007277935279088753559_);">
		<path class="st1" d="M711.1,0v16.7"/>
		<path class="st1" d="M722.9,0.1l-0.3,16.7"/>
		<path class="st1" d="M734.7,0.4L734,17.1"/>
		<path class="st1" d="M746.4,0.9l-0.9,16.7"/>
		<path class="st1" d="M758.2,1.6l-1.2,16.7"/>
		<path class="st1" d="M769.9,2.6l-1.6,16.7"/>
		<path class="st1" d="M781.6,3.8l-1.9,16.6"/>
		<path class="st1" d="M793.3,5.2l-2.2,16.6"/>
		<path class="st1" d="M804.9,6.8l-2.5,16.6"/>
		<path class="st1" d="M816.5,8.6l-2.8,16.5"/>
		<path class="st1" d="M828.1,10.7L825,27.1"/>
		<path class="st1" d="M839.7,12.9l-3.4,16.4"/>
		<path class="st1" d="M851.2,15.4l-3.7,16.3"/>
		<path class="st1" d="M862.6,18.1l-4,16.3"/>
		<path class="st1" d="M874,21l-4.3,16.2"/>
		<path class="st1" d="M885.4,24.1l-4.6,16.1"/>
		<path class="st1" d="M896.6,27.4l-4.9,16"/>
		<path class="st1" d="M907.9,30.9l-5.2,15.9"/>
		<path class="st1" d="M919,34.7l-5.5,15.8"/>
		<path class="st1" d="M930.1,38.6l-5.8,15.7"/>
		<path class="st1" d="M941.1,42.8L935,58.4"/>
		<path class="st1" d="M952,47.1l-6.4,15.5"/>
		<path class="st1" d="M962.9,51.7L956.2,67"/>
		<path class="st1" d="M973.6,56.4l-6.9,15.2"/>
		<path class="st1" d="M984.3,61.4l-7.2,15.1"/>
		<path class="st1" d="M994.9,66.5l-7.5,15"/>
		<path class="st1" d="M1005.4,71.9l-7.8,14.8"/>
		<path class="st1" d="M1015.7,77.4l-8,14.7"/>
		<path class="st1" d="M1026,83.2l-8.3,14.5"/>
		<path class="st1" d="M1036.2,89.1l-8.6,14.4"/>
		<path class="st1" d="M1046.2,95.2l-8.9,14.2"/>
		<path class="st1" d="M1056.2,101.5l-9.1,14"/>
		<path class="st1" d="M1066,108l-9.4,13.9"/>
		<path class="st1" d="M1075.7,114.6l-9.6,13.7"/>
		<path class="st1" d="M1085.2,121.5l-9.9,13.5"/>
		<path class="st1" d="M1094.7,128.5l-10.2,13.3"/>
		<path class="st1" d="M1104,135.7l-10.4,13.1"/>
		<path class="st1" d="M1113.1,143.1l-10.6,12.9"/>
		<path class="st1" d="M1122.2,150.6l-10.9,12.7"/>
		<path class="st1" d="M1131.1,158.3l-11.1,12.5"/>
		<path class="st1" d="M1139.8,166.2l-11.3,12.3"/>
		<path class="st1" d="M1148.4,174.2l-11.6,12.1"/>
		<path class="st1" d="M1156.9,182.4l-11.8,11.9"/>
		<path class="st1" d="M1165.2,190.7l-12,11.7"/>
		<path class="st1" d="M1173.3,199.2l-12.2,11.4"/>
		<path class="st1" d="M1181.3,207.9l-12.4,11.2"/>
		<path class="st1" d="M1189.1,216.6l-12.6,11"/>
		<path class="st1" d="M1196.7,225.6l-12.8,10.7"/>
		<path class="st1" d="M1204.2,234.7l-13,10.5"/>
		<path class="st1" d="M1211.5,243.9l-13.2,10.3"/>
		<path class="st1" d="M1218.7,253.2l-13.4,10"/>
		<path class="st1" d="M1225.6,262.7l-13.6,9.8"/>
		<path class="st1" d="M1232.4,272.3l-13.8,9.5"/>
		<path class="st1" d="M1239,282l-14,9.2"/>
		<path class="st1" d="M1245.5,291.9l-14.1,9"/>
		<path class="st1" d="M1251.7,301.9l-14.3,8.7"/>
		<path class="st1" d="M1257.8,311.9l-14.4,8.5"/>
		<path class="st1" d="M1263.6,322.1l-14.6,8.2"/>
		<path class="st1" d="M1269.3,332.4l-14.8,7.9"/>
		<path class="st1" d="M1274.8,342.8l-14.9,7.6"/>
		<path class="st1" d="M1280.1,353.3l-15,7.4"/>
		<path class="st1" d="M1285.2,363.9L1270,371"/>
		<path class="st1" d="M1290.1,374.6l-15.3,6.8"/>
		<path class="st1" d="M1294.8,385.4l-15.4,6.5"/>
		<path class="st1" d="M1299.3,396.3l-15.6,6.2"/>
		<path class="st1" d="M1303.6,407.2l-15.7,5.9"/>
		<path class="st1" d="M1307.6,418.3l-15.8,5.6"/>
		<path class="st1" d="M1311.5,429.4l-15.9,5.3"/>
		<path class="st1" d="M1315.2,440.6l-16,5"/>
		<path class="st1" d="M1318.7,451.8l-16.1,4.8"/>
		<path class="st1" d="M1321.9,463.1l-16.1,4.4"/>
		<path class="st1" d="M1324.9,474.5l-16.2,4.1"/>
		<path class="st1" d="M1327.8,485.9l-16.3,3.8"/>
		<path class="st1" d="M1330.4,497.3l-16.4,3.5"/>
		<path class="st1" d="M1332.8,508.9l-16.4,3.2"/>
		<path class="st1" d="M1335,520.4l-16.5,2.9"/>
		<path class="st1" d="M1337,532l-16.5,2.6"/>
		<path class="st1" d="M1338.7,543.6l-16.6,2.3"/>
		<path class="st1" d="M1340.3,555.3l-16.6,2"/>
		<path class="st1" d="M1341.6,567l-16.7,1.7"/>
		<path class="st1" d="M1342.7,578.7l-16.7,1.4"/>
		<path class="st1" d="M1343.6,590.4l-16.7,1.1"/>
		<path class="st1" d="M1344.3,602.2l-16.7,0.8"/>
		<path class="st1" d="M1344.8,613.9l-16.8,0.5"/>
		<path class="st1" d="M1345,625.7l-16.7,0.1"/>
		<path class="st1" d="M1345,637.4l-16.8-0.2"/>
		<path class="st1" d="M1344.8,649.2l-16.7-0.5"/>
		<path class="st1" d="M1344.4,661l-16.7-0.8"/>
		<path class="st1" d="M1343.7,672.7l-16.7-1.1"/>
		<path class="st1" d="M1342.9,684.4l-16.7-1.4"/>
		<path class="st1" d="M1341.8,696.2l-16.7-1.7"/>
		<path class="st1" d="M1340.5,707.8l-16.6-2"/>
		<path class="st1" d="M1339,719.5l-16.6-2.3"/>
		<path class="st1" d="M1337.3,731.1l-16.5-2.6"/>
		<path class="st1" d="M1335.3,742.7l-16.5-3"/>
		<path class="st1" d="M1333.2,754.3l-16.4-3.3"/>
		<path class="st1" d="M1330.8,765.8l-16.4-3.6"/>
		<path class="st1" d="M1328.2,777.3l-16.3-3.9"/>
		<path class="st1" d="M1325.4,788.7l-16.2-4.2"/>
		<path class="st1" d="M1322.4,800.1l-16.1-4.5"/>
		<path class="st1" d="M1319.2,811.4l-16-4.8"/>
		<path class="st1" d="M1315.8,822.7l-15.9-5.1"/>
		<path class="st1" d="M1312.1,833.8l-15.9-5.4"/>
		<path class="st1" d="M1308.3,845l-15.8-5.7"/>
		<path class="st1" d="M1304.2,856l-15.6-5.9"/>
		<path class="st1" d="M1299.9,867l-15.5-6.2"/>
		<path class="st1" d="M1295.5,877.8l-15.4-6.5"/>
		<path class="st1" d="M1290.8,888.7l-15.3-6.8"/>
		<path class="st1" d="M1286,899.4l-15.2-7.1"/>
		<path class="st1" d="M1280.9,910l-15-7.4"/>
		<path class="st1" d="M1275.6,920.5l-14.9-7.7"/>
		<path class="st1" d="M1270.2,930.9l-14.8-7.9"/>
		<path class="st1" d="M1264.5,941.2l-14.6-8.2"/>
		<path class="st1" d="M1258.7,951.5l-14.4-8.5"/>
		<path class="st1" d="M1252.7,961.6l-14.3-8.7"/>
		<path class="st1" d="M1246.5,971.5l-14.1-9"/>
		<path class="st1" d="M1240.1,981.4l-13.9-9.3"/>
		<path class="st1" d="M1233.5,991.2l-13.8-9.5"/>
		<path class="st1" d="M1226.7,1000.8l-13.6-9.8"/>
		<path class="st1" d="M1219.8,1010.3l-13.4-10"/>
		<path class="st1" d="M1212.7,1019.7l-13.2-10.3"/>
		<path class="st1" d="M1205.4,1028.9l-13-10.5"/>
		<path class="st1" d="M1197.9,1038l-12.8-10.8"/>
		<path class="st1" d="M1190.3,1046.9l-12.6-11"/>
		<path class="st1" d="M1182.5,1055.8l-12.4-11.2"/>
		<path class="st1" d="M1174.6,1064.4l-12.2-11.5"/>
		<path class="st1" d="M1166.5,1072.9l-12-11.7"/>
		<path class="st1" d="M1158.2,1081.3l-11.8-11.9"/>
		<path class="st1" d="M1149.8,1089.5l-11.5-12.1"/>
		<path class="st1" d="M1141.2,1097.6l-11.3-12.3"/>
		<path class="st1" d="M1132.5,1105.5l-11.1-12.5"/>
		<path class="st1" d="M1123.6,1113.2l-10.9-12.8"/>
		<path class="st1" d="M1114.6,1120.8l-10.6-12.9"/>
		<path class="st1" d="M1105.4,1128.1l-10.4-13.1"/>
		<path class="st1" d="M1096.2,1135.4L1086,1122"/>
		<path class="st1" d="M1086.7,1142.4l-9.9-13.5"/>
		<path class="st1" d="M1077.2,1149.3l-9.6-13.7"/>
		<path class="st1" d="M1067.5,1156l-9.4-13.9"/>
		<path class="st1" d="M1057.7,1162.5l-9.1-14.1"/>
		<path class="st1" d="M1047.8,1168.8l-8.8-14.2"/>
		<path class="st1" d="M1037.8,1175l-8.6-14.4"/>
		<path class="st1" d="M1027.6,1180.9l-8.3-14.5"/>
		<path class="st1" d="M1017.4,1186.7l-8-14.7"/>
		<path class="st1" d="M1007,1192.2l-7.8-14.8"/>
		<path class="st1" d="M996.6,1197.6l-7.5-15"/>
		<path class="st1" d="M986,1202.8l-7.2-15.1"/>
		<path class="st1" d="M975.3,1207.8l-6.9-15.2"/>
		<path class="st1" d="M964.6,1212.6l-6.6-15.4"/>
		<path class="st1" d="M953.8,1217.2l-6.3-15.5"/>
		<path class="st1" d="M942.9,1221.6l-6.1-15.6"/>
		<path class="st1" d="M931.9,1225.8l-5.8-15.7"/>
		<path class="st1" d="M920.8,1229.7l-5.5-15.8"/>
		<path class="st1" d="M909.7,1233.5l-5.2-15.9"/>
		<path class="st1" d="M898.4,1237.1l-4.9-16"/>
		<path class="st1" d="M887.2,1240.4l-4.6-16.1"/>
		<path class="st1" d="M875.8,1243.6l-4.3-16.2"/>
		<path class="st1" d="M864.4,1246.5l-4-16.3"/>
		<path class="st1" d="M853,1249.2l-3.7-16.3"/>
		<path class="st1" d="M841.5,1251.7l-3.4-16.4"/>
		<path class="st1" d="M830,1254l-3.1-16.5"/>
		<path class="st1" d="M818.4,1256.1l-2.8-16.5"/>
		<path class="st1" d="M806.8,1257.9l-2.5-16.6"/>
		<path class="st1" d="M795.1,1259.6L793,1243"/>
		<path class="st1" d="M783.4,1261l-1.8-16.6"/>
		<path class="st1" d="M771.7,1262.2l-1.5-16.7"/>
		<path class="st1" d="M760,1263.2l-1.2-16.7"/>
		<path class="st1" d="M748.3,1264l-0.9-16.7"/>
		<path class="st1" d="M736.5,1264.6l-0.6-16.7"/>
		<path class="st1" d="M724.8,1264.9l-0.3-16.7"/>
		<path class="st1" d="M713,1265l0-16.7"/>
		<path class="st1" d="M701.3,1264.9l0.3-16.7"/>
		<path class="st1" d="M689.5,1264.6l0.6-16.7"/>
		<path class="st1" d="M677.7,1264l1-16.7"/>
		<path class="st1" d="M666,1263.3l1.3-16.7"/>
		<path class="st1" d="M654.3,1262.3l1.6-16.7"/>
		<path class="st1" d="M642.6,1261.1l1.9-16.6"/>
		<path class="st1" d="M630.9,1259.7l2.2-16.6"/>
		<path class="st1" d="M619.3,1258.1l2.5-16.5"/>
		<path class="st1" d="M607.6,1256.2l2.8-16.5"/>
		<path class="st1" d="M596.1,1254.2l3.1-16.4"/>
		<path class="st1" d="M584.5,1251.9l3.4-16.4"/>
		<path class="st1" d="M573,1249.4l3.7-16.3"/>
		<path class="st1" d="M561.6,1246.7l4-16.2"/>
		<path class="st1" d="M550.2,1243.8l4.3-16.2"/>
		<path class="st1" d="M538.8,1240.7l4.6-16.1"/>
		<path class="st1" d="M527.6,1237.4l4.9-16"/>
		<path class="st1" d="M516.3,1233.8l5.2-15.9"/>
		<path class="st1" d="M505.2,1230.1l5.5-15.8"/>
		<path class="st1" d="M494.1,1226.1l5.8-15.7"/>
		<path class="st1" d="M483.1,1221.9l6.1-15.6"/>
		<path class="st1" d="M472.2,1217.6l6.4-15.5"/>
		<path class="st1" d="M461.3,1213l6.7-15.4"/>
		<path class="st1" d="M450.6,1208.2l7-15.2"/>
		<path class="st1" d="M439.9,1203.3l7.2-15.1"/>
		<path class="st1" d="M429.4,1198.1l7.5-15"/>
		<path class="st1" d="M418.9,1192.7l7.8-14.8"/>
		<path class="st1" d="M408.5,1187.2l8.1-14.7"/>
		<path class="st1" d="M398.3,1181.4l8.3-14.5"/>
		<path class="st1" d="M388.1,1175.5l8.6-14.3"/>
		<path class="st1" d="M378.1,1169.4l8.9-14.2"/>
		<path class="st1" d="M368.1,1163.1l9.1-14"/>
		<path class="st1" d="M358.3,1156.6l9.4-13.9"/>
		<path class="st1" d="M348.7,1149.9l9.7-13.7"/>
		<path class="st1" d="M339.1,1143l9.9-13.5"/>
		<path class="st1" d="M329.7,1136l10.2-13.3"/>
		<path class="st1" d="M320.4,1128.8l10.4-13.1"/>
		<path class="st1" d="M311.2,1121.4l10.7-12.9"/>
		<path class="st1" d="M302.2,1113.9l10.9-12.7"/>
		<path class="st1" d="M293.3,1106.2l11.1-12.5"/>
		<path class="st1" d="M284.6,1098.3l11.4-12.3"/>
		<path class="st1" d="M276,1090.2l11.6-12.1"/>
		<path class="st1" d="M267.5,1082l11.8-11.9"/>
		<path class="st1" d="M259.3,1073.7l12-11.6"/>
		<path class="st1" d="M251.1,1065.2l12.2-11.4"/>
		<path class="st1" d="M243.2,1056.5l12.4-11.2"/>
		<path class="st1" d="M235.4,1047.7l12.7-11"/>
		<path class="st1" d="M227.7,1038.8l12.9-10.7"/>
		<path class="st1" d="M220.3,1029.7l13.1-10.5"/>
		<path class="st1" d="M212.9,1020.5l13.2-10.2"/>
		<path class="st1" d="M205.8,1011.1l13.4-10"/>
		<path class="st1" d="M198.9,1001.6l13.6-9.7"/>
		<path class="st1" d="M192.1,992l13.8-9.5"/>
		<path class="st1" d="M185.5,982.3l14-9.2"/>
		<path class="st1" d="M179.1,972.4l14.1-9"/>
		<path class="st1" d="M172.9,962.4l14.3-8.7"/>
		<path class="st1" d="M166.8,952.3l14.5-8.4"/>
		<path class="st1" d="M161,942.1l14.6-8.2"/>
		<path class="st1" d="M155.3,931.8l14.8-7.9"/>
		<path class="st1" d="M149.8,921.4l14.9-7.6"/>
		<path class="st1" d="M144.5,910.9l15-7.3"/>
		<path class="st1" d="M139.5,900.3l15.2-7.1"/>
		<path class="st1" d="M134.6,889.6l15.3-6.8"/>
		<path class="st1" d="M129.9,878.8l15.4-6.5"/>
		<path class="st1" d="M125.4,867.9l15.6-6.2"/>
		<path class="st1" d="M121.2,857l15.7-5.9"/>
		<path class="st1" d="M117.1,845.9l15.8-5.6"/>
		<path class="st1" d="M113.2,834.8l15.9-5.3"/>
		<path class="st1" d="M109.6,823.7l16-5"/>
		<path class="st1" d="M106.1,812.4l16.1-4.7"/>
		<path class="st1" d="M102.9,801.1l16.1-4.4"/>
		<path class="st1" d="M99.8,789.7l16.2-4.1"/>
		<path class="st1" d="M97,778.3l16.3-3.8"/>
		<path class="st1" d="M94.4,766.8l16.4-3.5"/>
		<path class="st1" d="M92,755.3l16.4-3.2"/>
		<path class="st1" d="M89.8,743.8l16.5-2.9"/>
		<path class="st1" d="M87.9,732.2l16.5-2.6"/>
		<path class="st1" d="M86.1,720.5l16.6-2.3"/>
		<path class="st1" d="M84.6,708.9l16.6-2"/>
		<path class="st1" d="M83.3,697.2l16.7-1.7"/>
		<path class="st1" d="M82.2,685.5l16.7-1.4"/>
		<path class="st1" d="M81.3,673.7l16.7-1.1"/>
		<path class="st1" d="M80.7,662l16.7-0.7"/>
		<path class="st1" d="M80.2,650.2l16.7-0.4"/>
		<path class="st1" d="M80,638.5l16.7-0.1"/>
		<path class="st1" d="M80,626.7l16.7,0.2"/>
		<path class="st1" d="M80.2,615l16.7,0.5"/>
		<path class="st1" d="M80.7,603.2l16.7,0.8"/>
		<path class="st1" d="M81.3,591.5l16.7,1.1"/>
		<path class="st1" d="M82.2,579.7l16.7,1.4"/>
		<path class="st1" d="M83.3,568l16.7,1.7"/>
		<path class="st1" d="M84.6,556.3l16.6,2"/>
		<path class="st1" d="M86.1,544.7l16.6,2.4"/>
		<path class="st1" d="M87.8,533l16.5,2.7"/>
		<path class="st1" d="M89.8,521.4l16.5,3"/>
		<path class="st1" d="M92,509.9l16.4,3.3"/>
		<path class="st1" d="M94.4,498.4l16.4,3.6"/>
		<path class="st1" d="M97,486.9l16.3,3.9"/>
		<path class="st1" d="M99.8,475.5l16.2,4.2"/>
		<path class="st1" d="M102.8,464.1l16.1,4.5"/>
		<path class="st1" d="M106,452.8l16,4.8"/>
		<path class="st1" d="M109.5,441.5l16,5.1"/>
		<path class="st1" d="M113.1,430.4l15.9,5.4"/>
		<path class="st1" d="M117,419.3l15.7,5.7"/>
		<path class="st1" d="M121.1,408.2l15.6,6"/>
		<path class="st1" d="M125.3,397.3l15.5,6.3"/>
		<path class="st1" d="M129.8,386.4l15.4,6.5"/>
		<path class="st1" d="M134.5,375.6l15.3,6.8"/>
		<path class="st1" d="M139.4,364.9l15.2,7.1"/>
		<path class="st1" d="M144.5,354.3l15,7.4"/>
		<path class="st1" d="M149.7,343.8l14.9,7.7"/>
		<path class="st1" d="M155.2,333.3l14.7,7.9"/>
		<path class="st1" d="M160.9,323l14.6,8.2"/>
		<path class="st1" d="M166.7,312.8l14.4,8.5"/>
		<path class="st1" d="M172.7,302.7l14.3,8.8"/>
		<path class="st1" d="M179,292.8l14.1,9"/>
		<path class="st1" d="M185.4,282.9l13.9,9.3"/>
		<path class="st1" d="M192,273.2l13.8,9.5"/>
		<path class="st1" d="M198.7,263.5l13.6,9.8"/>
		<path class="st1" d="M205.7,254l13.4,10"/>
		<path class="st1" d="M212.8,244.7L226,255"/>
		<path class="st1" d="M220.1,235.5l13,10.5"/>
		<path class="st1" d="M227.6,226.4l12.8,10.8"/>
		<path class="st1" d="M235.2,217.4l12.6,11"/>
		<path class="st1" d="M243,208.6l12.4,11.2"/>
		<path class="st1" d="M251,200l12.2,11.5"/>
		<path class="st1" d="M259.1,191.5l12,11.7"/>
		<path class="st1" d="M267.4,183.1l11.8,11.9"/>
		<path class="st1" d="M275.8,174.9l11.5,12.1"/>
		<path class="st1" d="M284.4,166.9l11.3,12.4"/>
		<path class="st1" d="M293.1,159l11.1,12.6"/>
		<path class="st1" d="M302,151.3l10.8,12.8"/>
		<path class="st1" d="M311,143.7l10.6,13"/>
		<path class="st1" d="M320.2,136.3l10.4,13.2"/>
		<path class="st1" d="M329.5,129.1l10.1,13.3"/>
		<path class="st1" d="M338.9,122.1l9.9,13.5"/>
		<path class="st1" d="M348.5,115.2l9.6,13.7"/>
		<path class="st1" d="M358.2,108.6l9.4,13.9"/>
		<path class="st1" d="M368,102.1l9.1,14.1"/>
		<path class="st1" d="M377.9,95.7l8.8,14.2"/>
		<path class="st1" d="M387.9,89.6l8.6,14.4"/>
		<path class="st1" d="M398.1,83.7l8.3,14.5"/>
		<path class="st1" d="M408.3,77.9l8,14.7"/>
		<path class="st1" d="M418.7,72.4l7.7,14.8"/>
		<path class="st1" d="M429.2,67l7.5,15"/>
		<path class="st1" d="M439.7,61.8l7.2,15.1"/>
		<path class="st1" d="M450.4,56.9l6.9,15.3"/>
		<path class="st1" d="M461.2,52.1l6.6,15.4"/>
		<path class="st1" d="M472,47.5l6.3,15.5"/>
		<path class="st1" d="M482.9,43.1l6,15.6"/>
		<path class="st1" d="M493.9,39l5.7,15.7"/>
		<path class="st1" d="M505,35l5.5,15.8"/>
		<path class="st1" d="M516.1,31.2l5.2,15.9"/>
		<path class="st1" d="M527.4,27.7l4.9,16"/>
		<path class="st1" d="M538.6,24.4l4.6,16.1"/>
		<path class="st1" d="M550,21.2l4.3,16.2"/>
		<path class="st1" d="M561.4,18.3l4,16.3"/>
		<path class="st1" d="M572.8,15.6l3.7,16.3"/>
		<path class="st1" d="M584.3,13.1l3.4,16.4"/>
		<path class="st1" d="M595.8,10.8l3.1,16.5"/>
		<path class="st1" d="M607.4,8.8l2.7,16.5"/>
		<path class="st1" d="M619,6.9l2.4,16.6"/>
		<path class="st1" d="M630.7,5.3l2.1,16.6"/>
		<path class="st1" d="M642.4,3.9l1.8,16.6"/>
		<path class="st1" d="M654.1,2.7l1.5,16.7"/>
		<path class="st1" d="M665.8,1.7l1.2,16.7"/>
		<path class="st1" d="M677.5,1l0.9,16.7"/>
		<path class="st1" d="M689.3,0.4l0.6,16.7"/>
		<path class="st1" d="M701,0.1l0.3,16.7"/>
	</g>
</g>
<path class="st2" d="M145.9,218l565.7,406.4"/>
<text transform="matrix(0.8121 0.5835 -0.5835 0.8121 151.254 208.8356)" class="st3 st4">Curatorial Team</text>
<text transform="matrix(0.8856 0.4644 -0.4644 0.8856 197.8163 339.7605)" class="st5 st6">Tega Brain</text>
<text transform="matrix(0.9416 0.3368 -0.3368 0.9416 271.4786 455.8039)" class="st5 st6">Alex Nathanson</text>
<text transform="matrix(0.9789 0.2045 -0.2045 0.9789 81.8655 482.2578)" class="st5 st6">Benedetta Piantella</text>
<text transform="matrix(0.9987 5.126262e-02 -5.126262e-02 0.9987 146.6974 585.7191)" class="st5 st6">Kate Silzer</text>
<path class="st2" d="M18.8,680.1l694.4-54.3"/>
<text transform="matrix(0.997 -7.801575e-02 7.801575e-02 0.997 16.9987 669.6038)" class="st3 st4">Advisor</text>
<text transform="matrix(0.9763 -0.2164 0.2164 0.9763 137.0333 739.613)" class="st5 st6">Taeyoon Choi</text>
<path class="st2" d="M169.5,1065.1l543-436.2"/>
<text transform="matrix(0.7796 -0.6263 0.6263 0.7796 162.125 1057.4504)" class="st3 st4">Designer</text>
<text transform="matrix(0.6845 -0.729 0.729 0.6845 300.7367 1047.6268)" class="st5 st6">Sam Griffith</text>
<path class="st2" d="M236.7,119.4l478.1,506.5"/>
<text transform="matrix(0.6864 0.7272 -0.7272 0.6864 242.5294 110.2431)" class="st5 st4">Solar Protocol Online Exhibition</text>
<path class="st2" d="M59.9,863l655.1-236.7"/>
<text transform="matrix(0.9405 -0.3399 0.3399 0.9405 55.312 853.4384)" class="st3 st4">Funder</text>
<text transform="matrix(0.8838 -0.4678 0.4678 0.8838 189.6252 889.0728)" class="st5 st6">Mozilla Creative Media Award</text>
<path class="st2" d="M713,624.1l417.6-510.7"/>
<text transform="matrix(0.633 -0.7742 0.7742 0.633 1068.9258 171.2681)" class="st3 st4">Artists</text>
<path id="SVGID_x5F_00000030445647495120422570000006697861103467412879_x5F_" class="st7" d="M891.9,496.9l243.5-177.6"/>
<text><textPath  xlink:href="#SVGID_x5F_00000030445647495120422570000006697861103467412879_x5F_" startOffset="19.751%">
<tspan  class="st5 st6">Kristin Lucas and Joe McKay</tspan></textPath>
</text>
<path id="SVGID_x5F_00000009552687488634254550000004728774613620237756_x5F_" class="st7" d="M1091.1,438.8l118-58.8"/>
<text><textPath  xlink:href="#SVGID_x5F_00000009552687488634254550000004728774613620237756_x5F_" startOffset="19.751%">
<tspan  class="st5 st6">Hakeem Adam</tspan></textPath>
</text>
<path id="SVGID_x5F_00000023282447135145395510000002316646578381201321_x5F_" class="st7" d="M1054.7,583.7l153.7-19.5"/>
<text><textPath  xlink:href="#SVGID_x5F_00000023282447135145395510000002316646578381201321_x5F_" startOffset="19.751%">
<tspan  class="st5 st6">Everest Pipkin </tspan></textPath>
</text>
<path id="SVGID_x5F_00000041991805493390282470000000038099819038532526_x5F_" class="st7" d="M1119.4,643.9l170.9,7.2"/>
<text><textPath  xlink:href="#SVGID_x5F_00000041991805493390282470000000038099819038532526_x5F_" startOffset="19.751%">
<tspan  class="st5 st6">Allison Parrish</tspan></textPath>
</text>
<path id="SVGID_x5F_00000031909219170199999280000006318110102857249156_x5F_" class="st7" d="M876.9,661.7l168.6,35.9"/>
<text><textPath  xlink:href="#SVGID_x5F_00000031909219170199999280000006318110102857249156_x5F_" startOffset="19.751%">
<tspan  class="st5 st6">Roopa Vasudevan</tspan></textPath>
</text>
<path id="SVGID_x5F_00000122695270870086979720000012037187805727062696_x5F_" class="st7" d="M1104.6,782.2l171.4,68.1"/>
<text><textPath  xlink:href="#SVGID_x5F_00000122695270870086979720000012037187805727062696_x5F_" startOffset="19.751%">
<tspan  class="st5 st6">Brian Sutherland</tspan></textPath>
</text>
<path id="SVGID_x5F_00000052066279507165396910000010182619908908549297_x5F_" class="st7" d="M969.1,782.2l130.9,79.5"/>
<text><textPath  xlink:href="#SVGID_x5F_00000052066279507165396910000010182619908908549297_x5F_" startOffset="19.751%">
<tspan  class="st5 st6">Denzel Wamburu</tspan></textPath>
</text>
<path id="SVGID_x5F_00000101802753580504483340000000325616044085174163_x5F_" class="st7" d="M1036.9,907.1l108.4,94"/>
<text><textPath  xlink:href="#SVGID_x5F_00000101802753580504483340000000325616044085174163_x5F_" startOffset="19.751%">
<tspan  class="st5 st6">Mark Anthony </tspan></textPath>
</text>
<path id="SVGID_x5F_00000041996180734750395880000017796807515519587734_x5F_" class="st7" d="M891.9,843.5l63.9,77.6"/>
<text><textPath  xlink:href="#SVGID_x5F_00000041996180734750395880000017796807515519587734_x5F_" startOffset="19.751%">
<tspan  class="st5 st6">honor ash</tspan></textPath>
</text>
<path id="SVGID_x5F_00000088096634003595523350000000091000049953851052_x5F_" class="st7" d="M916.7,981.1l83.1,144.9"/>
<text><textPath  xlink:href="#SVGID_x5F_00000088096634003595523350000000091000049953851052_x5F_" startOffset="19.751%">
<tspan  class="st5 st6">Marloes de Valk</tspan></textPath>
</text>
<path id="SVGID_x5F_00000155847478770549892980000008008105376558875571_x5F_" class="st7" d="M776.5,798l36.4,99"/>
<text><textPath  xlink:href="#SVGID_x5F_00000155847478770549892980000008008105376558875571_x5F_" startOffset="19.751%">
<tspan  class="st5 st6">Felix Lenz</tspan></textPath>
</text>
<path id="SVGID_x5F_00000111903822769721335810000013297608191870131635_x5F_" class="st7" d="M795.4,1065.1l14.5,77.9"/>
<text><textPath  xlink:href="#SVGID_x5F_00000111903822769721335810000013297608191870131635_x5F_" startOffset="19.751%">
<tspan  class="st5 st6">Jen Liu</tspan></textPath>
</text>
<path id="SVGID_x5F_00000074421699615524359570000007754214527835717787_x5F_" class="st7" d="M712.2,921.1L712,941l-1,145.5"/>
<text><textPath  xlink:href="#SVGID_x5F_00000074421699615524359570000007754214527835717787_x5F_" startOffset="9.8755%">
<tspan  class="st5 st6">Stephanie Dick</tspan></textPath>
</text>
<path id="SVGID_x5F_00000003811717533186698460000007238894258365488026_x5F_" class="st7" d="M876.9,577.5l401.5-121.7"/>
<text><textPath  xlink:href="#SVGID_x5F_00000003811717533186698460000007238894258365488026_x5F_" startOffset="19.751%">
<tspan  class="st5 st6">Rory Gillen and Anna Madeleine Raupach</tspan></textPath>
</text>
<g>
	<path id="SVGID_x5F_00000142894218948266543310000013378637162895758497_x5F_" class="st7" d="M1956.9,876.6l763.9-557.3"/>
	<text>	<textPath  xlink:href="#SVGID_x5F_00000142894218948266543310000013378637162895758497_x5F_" startOffset="19.751%">
<tspan  class="st5 st6">Kristin Lucas and Joe McKay</tspan>	</textPath>
</text>
	<path id="SVGID_x5F_00000034809451590846229940000014833242535989301944_x5F_" class="st7" d="M1920,815.8l874.5-435.8"/>
	<text>	<textPath  xlink:href="#SVGID_x5F_00000034809451590846229940000014833242535989301944_x5F_" startOffset="19.751%">
<tspan  class="st5 st6">Hakeem Adam</tspan>	</textPath>
</text>
	<path id="SVGID_x5F_00000011003186663660070620000013247723176054501545_x5F_" class="st7" d="M1878.9,680.2l914.9-116.1"/>
	<text>	<textPath  xlink:href="#SVGID_x5F_00000011003186663660070620000013247723176054501545_x5F_" startOffset="19.751%">
<tspan  class="st5 st6">Everest Pipkin </tspan>	</textPath>
</text>
	<path id="SVGID_x5F_00000138532126448948379100000008736952841696669870_x5F_" class="st7" d="M1875.9,609.2l999.9,41.9"/>
	<text>	<textPath  xlink:href="#SVGID_x5F_00000138532126448948379100000008736952841696669870_x5F_" startOffset="19.751%">
<tspan  class="st5 st6">Allison Parrish</tspan>	</textPath>
</text>
	<path id="SVGID_x5F_00000072266199334422797670000017032027212447860902_x5F_" class="st7" d="M1884.8,538.7l746.1,159"/>
	<text>	<textPath  xlink:href="#SVGID_x5F_00000072266199334422797670000017032027212447860902_x5F_" startOffset="19.751%">
<tspan  class="st5 st6">Roopa Vasudevan</tspan>	</textPath>
</text>
	<path id="SVGID_x5F_00000183248114098616600690000017203205651034978705_x5F_" class="st7" d="M1905.4,470.7l956.1,379.6"/>
	<text>	<textPath  xlink:href="#SVGID_x5F_00000183248114098616600690000017203205651034978705_x5F_" startOffset="19.751%">
<tspan  class="st5 st6">Brian Sutherland</tspan>	</textPath>
</text>
	<path id="SVGID_x5F_00000123400300572745921370000002413716946049723800_x5F_" class="st7" d="M1937.1,407l748.4,454.7"/>
	<text>	<textPath  xlink:href="#SVGID_x5F_00000123400300572745921370000002413716946049723800_x5F_" startOffset="19.751%">
<tspan  class="st5 st6">Denzel Wamburu</tspan>	</textPath>
</text>
	<path id="SVGID_x5F_00000092447196967547365500000005862777087834059416_x5F_" class="st7" d="M1979,349.6l751.8,651.5"/>
	<text>	<textPath  xlink:href="#SVGID_x5F_00000092447196967547365500000005862777087834059416_x5F_" startOffset="19.751%">
<tspan  class="st5 st6">Mark Anthony </tspan>	</textPath>
</text>
	<path id="SVGID_x5F_00000104664459075808295730000000572709256099134103_x5F_" class="st7" d="M2029.9,300l511.3,621.2"/>
	<text>	<textPath  xlink:href="#SVGID_x5F_00000104664459075808295730000000572709256099134103_x5F_" startOffset="19.751%">
<tspan  class="st5 st6">honor ash</tspan>	</textPath>
</text>
	<path id="SVGID_x5F_00000065050036247884918620000004617892719630025648_x5F_" class="st7" d="M2088.4,259.5l496.8,866.4"/>
	<text>	<textPath  xlink:href="#SVGID_x5F_00000065050036247884918620000004617892719630025648_x5F_" startOffset="19.751%">
<tspan  class="st5 st6">Marloes de Valk</tspan>	</textPath>
</text>
	<path id="SVGID_x5F_00000147913544275042479200000016736826386115240078_x5F_" class="st7" d="M2152.8,229.5L2398.4,897"/>
	<text>	<textPath  xlink:href="#SVGID_x5F_00000147913544275042479200000016736826386115240078_x5F_" startOffset="19.751%">
<tspan  class="st5 st6">Felix Lenz</tspan>	</textPath>
</text>
	<path id="SVGID_x5F_00000024696227135810045360000016396287259899592884_x5F_" class="st7" d="M2221.3,210.6l174.1,932.3"/>
	<text>	<textPath  xlink:href="#SVGID_x5F_00000024696227135810045360000016396287259899592884_x5F_" startOffset="19.751%">
<tspan  class="st5 st6">Jen Liu</tspan>	</textPath>
</text>
	<path id="SVGID_x5F_00000109031491298690521170000013443782801627705784_x5F_" class="st7" d="M2302.6,202.7l-6.2,883.8"/>
	<text>	<textPath  xlink:href="#SVGID_x5F_00000109031491298690521170000013443782801627705784_x5F_" startOffset="19.751%">
<tspan  class="st5 st6">Stephanie Dick</tspan>	</textPath>
</text>
	<path id="SVGID_x5F_00000009585580799483229530000013979842417510664614_x5F_" class="st7" d="M1893.7,749.8l970.1-294"/>
	<text>	<textPath  xlink:href="#SVGID_x5F_00000009585580799483229530000013979842417510664614_x5F_" startOffset="19.751%">
<tspan  class="st5 st6">Rory Gillen and Anna Madeleine Raupach</tspan>	</textPath>
</text>
</g>
</svg>
